<?xml version="1.0" standalone="no"?>
<!DOCTYPE svg PUBLIC "-//W3C//DTD SVG 1.1//EN" "http://www.w3.org/Graphics/SVG/1.1/DTD/svg11.dtd" >
<svg>
<metadata>
Created by FontForge 20110222 at Tue Aug 20 04:07:15 2013
 By Ubuntu
Copyright (c) 1987, 1991, 1994, 1998 Adobe Systems Incorporated. All Rights Reserved.Univers is a trademark of Linotype-Hell AG and/or its subsidiaries.
</metadata>
<defs>
<font id="UniversLT-CondensedOblique" horiz-adv-x="500" >
  <font-face 
    font-family="Univers LT 57 Condensed"
    font-weight="400"
    font-style="oblique"
    font-stretch="normal"
    units-per-em="1000"
    panose-1="2 0 5 3 5 0 0 2 0 3"
    ascent="800"
    descent="-200"
    x-height="505"
    cap-height="722"
    bbox="-172 -250 1062 989"
    underline-thickness="50"
    underline-position="-75"
    slope="-12"
    unicode-range="U+0020-FB02"
  />
<missing-glyph horiz-adv-x="222" 
 />
    <glyph glyph-name=".notdef" horiz-adv-x="222" 
 />
    <glyph glyph-name="exclam" unicode="!" horiz-adv-x="333" 
d="M214 0h-94l21 104h94zM164 167l98 555h109l-136 -555h-71z" />
    <glyph glyph-name="quotedbl" unicode="&#x22;" horiz-adv-x="250" 
d="M305 722h60l-43 -207h-60zM185 722h60l-43 -207h-60z" />
    <glyph glyph-name="numbersign" unicode="#" horiz-adv-x="444" 
d="M305 290l58 114h-81l-57 -114h80zM144 234h-99l29 56h99l58 114h-101l29 56h100l122 234h51l-122 -234h82l120 234h52l-121 -234h102l-29 -56h-102l-58 -114h103l-29 -56h-103l-120 -234h-51l120 234h-80l-122 -234h-51z" />
    <glyph glyph-name="dollar" unicode="$" horiz-adv-x="444" 
d="M329 625q-38 -5 -66.5 -30.5t-37.5 -67.5q-8 -42 10.5 -67t50.5 -44zM256 65q45 5 80 33t46 76q4 22 -0.5 39.5t-15.5 31.5t-27 26.5t-35 23.5zM227 -74h-43l12 59q-53 0 -85 15.5t-49 39.5t-21.5 52t-3.5 53t5.5 43.5t5.5 22.5h94q-6 -27 -5.5 -52.5t8 -45.5t24.5 -33
t44 -15l52 252q-29 16 -57 33.5t-48.5 40.5t-30 53.5t-0.5 72.5t29.5 76.5t50 59t64.5 38.5t73 14l12 59h43l-12 -59q100 0 137 -53t17 -151h-101q12 55 -1.5 88t-68.5 36l-48 -231q30 -16 61.5 -33.5t55 -41.5t34.5 -58.5t1 -83.5q-11 -52 -37 -88.5t-59.5 -59.5
t-70.5 -33.5t-70 -10.5z" />
    <glyph glyph-name="percent" unicode="%" horiz-adv-x="778" 
d="M643 311q-22 0 -35.5 -8.5t-22.5 -25t-15 -42t-13 -59.5t-11.5 -59.5t-2.5 -42t12 -25t32 -8.5t35.5 8.5t22.5 25t15 42t13 59.5t11.5 59.5t2.5 42t-12 25t-32 8.5zM339 681q-22 0 -35.5 -8.5t-22.5 -25t-15 -42t-13 -59.5t-11.5 -59.5t-2.5 -42t12 -25t32 -8.5t35.5 8.5
t22.5 25t15 42t13 59.5t11.5 59.5t2.5 42t-12 25t-32 8.5zM240 -36h-63l506 794h65zM655 367q45 0 67.5 -17t29 -44.5t2.5 -62t-11 -69.5q-8 -36 -18 -70t-28 -60.5t-47.5 -42.5t-74.5 -16t-67.5 16t-29.5 42.5t-3 60.5t12 70q7 35 17 69.5t28.5 62t48 44.5t74.5 17z
M351 737q45 0 67.5 -17t29 -44.5t2.5 -62t-11 -69.5q-8 -36 -18 -70t-28 -60.5t-47.5 -42.5t-74.5 -16t-67.5 16t-29.5 42.5t-3 60.5t12 70q7 35 17 69.5t28.5 62t48 44.5t74.5 17z" />
    <glyph glyph-name="ampersand" unicode="&#x26;" horiz-adv-x="667" 
d="M386 456q15 11 32.5 25t32.5 30.5t26.5 35t15.5 39.5q8 38 -8.5 59.5t-53.5 21.5q-35 0 -62 -22.5t-35 -58.5q-4 -19 1 -36t14 -33.5t19.5 -31.5t17.5 -29zM339 359q-27 -16 -51.5 -32t-44.5 -35t-34.5 -43t-20.5 -55q-12 -59 21.5 -95.5t98.5 -36.5q49 0 87.5 16
t74.5 56zM507 74q-52 -50 -104 -69.5t-116 -19.5q-49 0 -89.5 12.5t-67.5 38.5t-37.5 64.5t0.5 91.5q9 45 28 76.5t45.5 56.5t60 45.5t72.5 41.5q-12 18 -24.5 39.5t-21.5 44.5t-12.5 48t1.5 50q8 39 29 66.5t49.5 44.5t62 24.5t67.5 7.5t63 -8.5t48.5 -26.5t27 -45.5
t-0.5 -65.5q-6 -29 -22 -55.5t-38.5 -50.5t-48.5 -46t-52 -40l104 -179q9 18 16 37t13 43t12.5 54t15.5 71h82q-12 -58 -24 -101t-24 -74.5t-25 -54t-27 -40.5l84 -155h-104z" />
    <glyph glyph-name="quoteright" unicode="&#x2019;" horiz-adv-x="222" 
d="M228 722h108l-124 -199h-69z" />
    <glyph glyph-name="parenleft" unicode="(" horiz-adv-x="278" 
d="M124 -118q-6 53 -12.5 106t-9.5 107t-1 108.5t14 110.5q12 58 33 114t47 110.5t55 109t57 108.5h61q-51 -110 -94 -221t-66 -225q-23 -109 -26 -215.5t0 -212.5h-58z" />
    <glyph glyph-name="parenright" unicode=")" horiz-adv-x="278" 
d="M46 -118q47 106 88 212.5t64 215.5q23 114 27 225t-1 221h61q6 -54 12.5 -108.5t9.5 -109t0.5 -110.5t-14.5 -114q-12 -56 -32.5 -110.5t-46 -108.5t-54.5 -107t-56 -106h-58z" />
    <glyph glyph-name="asterisk" unicode="*" horiz-adv-x="444" 
d="M367 537l64 -130l-65 -32l-37 144l-97 -144l-51 32l118 130l-159 -15l14 66l153 -12l-63 127l66 34l35 -142l95 142l52 -34l-117 -127l159 12l-14 -66z" />
    <glyph glyph-name="plus" unicode="+" 
d="M323 505h62l-45 -221h176l-13 -62h-176l-46 -222h-62l46 222h-176l13 62h176z" />
    <glyph glyph-name="comma" unicode="," horiz-adv-x="222" 
d="M107 104h103l-139 -231h-64z" />
    <glyph glyph-name="hyphen" unicode="-" horiz-adv-x="333" 
d="M120 311h220l-16 -77h-220z" />
    <glyph glyph-name="hyphen" unicode="&#xad;" horiz-adv-x="333" 
d="M120 311h220l-16 -77h-220z" />
    <glyph glyph-name="period" unicode="." horiz-adv-x="222" 
d="M158 0h-94l21 104h94z" />
    <glyph glyph-name="slash" unicode="/" horiz-adv-x="278" 
d="M23 -96h-66l404 818h67z" />
    <glyph glyph-name="zero" unicode="0" horiz-adv-x="444" 
d="M352 628q-35 0 -58.5 -21t-41 -60t-30.5 -95t-28 -126q-9 -44 -18 -90.5t-9 -85.5q0 -38 14.5 -63t52.5 -25t63 25t41.5 63.5t26.5 85t19 90.5q15 70 25 126t9 95t-16 60t-50 21zM368 705q71 0 103 -30t39 -80.5t-4 -115.5t-26 -135q-14 -68 -30.5 -132.5t-44.5 -115
t-72.5 -81t-114.5 -30.5q-47 0 -76 14t-45 39t-20 59t-0.5 73.5t11.5 84t18 89.5q15 70 31 135t43.5 115.5t72 80.5t115.5 30z" />
    <glyph glyph-name="one" unicode="1" horiz-adv-x="444" 
d="M289 0h-92l123 593l-119 -70l19 88q9 4 26.5 14t37.5 22.5t39 25t31 21.5h79z" />
    <glyph glyph-name="two" unicode="2" horiz-adv-x="444" 
d="M43 0l16 80q98 106 163 174t105 115.5t60.5 84.5t29.5 82q8 42 -7 67t-60 25q-26 0 -44 -10t-30 -25.5t-19 -36t-11 -41.5h-94q11 87 64.5 138.5t142.5 51.5q94 0 130.5 -44t16.5 -138q-8 -39 -21 -70.5t-33 -61t-47 -59.5t-63 -66.5t-82 -81.5t-103 -104h275l-16 -80
h-373z" />
    <glyph glyph-name="three" unicode="3" horiz-adv-x="444" 
d="M252 404q62 -5 107 21.5t59 93.5q11 48 -5.5 78.5t-67.5 30.5q-29 0 -48 -10t-31.5 -25.5t-19.5 -36t-11 -41.5h-92q13 89 67 139.5t151 50.5q89 0 129.5 -44.5t21.5 -135.5q-11 -49 -33 -79t-47.5 -47t-50 -24t-40.5 -11v-2q40 -6 64.5 -19.5t37 -35.5t13 -52.5
t-7.5 -69.5q-21 -102 -84.5 -151t-163.5 -49q-48 0 -77.5 12.5t-45.5 32t-20.5 43.5t-3.5 47t5 42t6 29h92q-5 -26 -6.5 -49.5t4.5 -41t22.5 -28t47.5 -10.5q61 0 91 34.5t41 90.5q9 42 6.5 68.5t-17.5 41.5t-42 20.5t-67 5.5z" />
    <glyph glyph-name="four" unicode="4" horiz-adv-x="444" 
d="M308 249l75 361h-2l-225 -361h152zM60 169l16 80l289 445h122l-93 -445h82l-16 -80h-82l-35 -169h-86l35 169h-232z" />
    <glyph glyph-name="five" unicode="5" horiz-adv-x="444" 
d="M527 694l-17 -80h-232l-42 -202l2 -2q8 11 21 20.5t29.5 16.5t34.5 11t36 4q75 0 98 -56.5t-2 -177.5q-9 -42 -23 -85t-40 -78t-68.5 -57.5t-107.5 -22.5q-54 0 -84.5 14t-44 37.5t-13.5 54.5t7 66h92q-4 -20 -4 -39t7 -33.5t20.5 -23.5t36.5 -9q33 0 54.5 14.5
t35.5 36.5t22 49t13 53q8 38 13 71t1.5 57t-18.5 38t-47 14q-38 0 -63.5 -23t-38.5 -58h-83l81 390h324z" />
    <glyph glyph-name="six" unicode="6" horiz-adv-x="444" 
d="M176 225q-5 -26 -8.5 -54.5t1.5 -52.5t21.5 -40t49.5 -16q28 0 48.5 14t34.5 38t24 55.5t17 65.5q5 24 6.5 48.5t-4.5 45t-21.5 33.5t-45.5 13t-51.5 -14.5t-35.5 -37t-22.5 -49t-13.5 -49.5zM219 -15q-47 0 -76 14t-45 39t-20 59t-0.5 73.5t11.5 84t18 89.5
q15 70 31 135t43.5 115.5t72 80.5t115.5 30q39 0 69 -11.5t48.5 -33.5t24 -53.5t-4.5 -70.5h-92q4 18 2.5 36t-8.5 33t-20 24t-34 9q-28 0 -49 -13t-38 -43t-31 -78t-28 -117h2q23 30 56.5 47.5t69.5 17.5q33 0 61 -11t45 -37.5t21 -71.5t-10 -113q-10 -47 -28.5 -89
t-47.5 -74.5t-68 -51.5t-90 -19z" />
    <glyph glyph-name="seven" unicode="7" horiz-adv-x="444" 
d="M174 694h359l-17 -80l-312 -614h-104l321 614h-264z" />
    <glyph glyph-name="eight" unicode="8" horiz-adv-x="444" 
d="M306 408q26 0 45.5 12.5t33 31.5t22 41t12.5 41t2.5 38t-9 33.5t-22 23.5t-36.5 9t-40 -9t-31.5 -23.5t-22.5 -33.5t-13 -38t-5 -41t4.5 -41t19.5 -31.5t40 -12.5zM234 62q26 0 46 11t35 28.5t24 39.5t14 45t8 48t-2 46t-21 34.5t-48 13.5t-53.5 -13.5t-35.5 -34.5
t-21.5 -46t-12.5 -48t-4.5 -45t7.5 -39.5t22.5 -28.5t41.5 -11zM355 367q37 -4 58.5 -20t31 -40t8.5 -55t-8 -65q-20 -94 -78 -148t-149 -54t-127 54t-16 148q7 34 19.5 65t32 55t47.5 40t67 20v1q-30 6 -49.5 21t-30 37t-12 48.5t4.5 56.5q17 82 74.5 128t139.5 46
t120.5 -46t21.5 -128q-6 -30 -19.5 -56.5t-33 -48.5t-45 -37t-57.5 -21v-1z" />
    <glyph glyph-name="nine" unicode="9" horiz-adv-x="444" 
d="M353 638q-30 0 -51 -13.5t-35.5 -34.5t-23 -46.5t-13.5 -49.5q-5 -26 -7 -51.5t3.5 -46t21 -33.5t45.5 -13t51 13t35 33.5t23 46t14 51.5q5 24 7 49.5t-4 46.5t-21 34.5t-45 13.5zM367 705q71 0 103 -30t39 -80.5t-4 -115.5t-26 -135q-14 -68 -30.5 -132.5t-44.5 -115
t-72.5 -81t-114.5 -30.5q-78 0 -115 49t-18 132h92q-4 -19 -4 -38q0 -18 6 -33t19.5 -24t35.5 -9q33 0 56 18t40 53t30 86.5t27 118.5h-2q-24 -36 -58.5 -50.5t-74.5 -14.5q-21 0 -46.5 7.5t-45.5 30.5t-28 66.5t7 114.5q12 58 36.5 99t55.5 66t66.5 36.5t70.5 11.5z" />
    <glyph glyph-name="colon" unicode=":" horiz-adv-x="222" 
d="M158 0h-94l21 104h94zM241 401h-94l21 104h94z" />
    <glyph glyph-name="semicolon" unicode=";" horiz-adv-x="222" 
d="M241 401h-94l21 104h94zM107 104h103l-139 -231h-64z" />
    <glyph glyph-name="less" unicode="&#x3c;" 
d="M471 60l-15 -73l-369 234l14 64l465 230l-16 -73l-378 -189z" />
    <glyph glyph-name="equal" unicode="=" 
d="M482 125h-414l13 62h414zM523 322h-414l13 62h414z" />
    <glyph glyph-name="greater" unicode="&#x3e;" 
d="M432 253l-300 189l16 73l369 -230l-14 -64l-465 -234l15 73z" />
    <glyph glyph-name="question" unicode="?" horiz-adv-x="444" 
d="M266 0h-94l21 104h94zM216 183l23 114q7 33 31.5 61.5t54 60t56 68t36.5 85.5q4 16 3.5 33.5t-6.5 32t-18.5 23.5t-32.5 9q-27 0 -45 -14.5t-29.5 -35.5t-18 -45.5t-10.5 -43.5h-94q7 46 23.5 84t42.5 65t63.5 42t87.5 15q78 0 111 -45.5t17 -121.5q-9 -41 -25.5 -74
t-37 -59t-42 -47.5t-40 -40.5t-32 -36.5t-17.5 -36.5l-19 -93h-82z" />
    <glyph glyph-name="at" unicode="@" horiz-adv-x="788" 
d="M542 536q-40 0 -77 -24.5t-67.5 -61.5t-51.5 -79t-28 -76q-4 -18 -2.5 -35.5t8.5 -31t20 -21.5t32 -8q29 0 56.5 16.5t51 42.5t44 57t35 60.5t24 53t11.5 34.5q6 29 -9 51t-47 22zM677 576h69l-166 -305q-6 -11 -14 -26t-10 -26q-3 -13 4.5 -19.5t20.5 -6.5q23 0 55 15
t63.5 44.5t58.5 74t39 103.5q3 15 4.5 39.5t-3.5 52.5t-20 56t-44 51t-76 37.5t-116 14.5q-67 0 -130.5 -25t-116 -68.5t-90 -102t-50.5 -124.5q-14 -67 -1 -125t47.5 -101.5t87.5 -68.5t120 -25q91 0 172 33.5t140 99.5h60q-33 -44 -76.5 -79t-93 -59.5t-104 -37.5
t-110.5 -13q-78 0 -140.5 29.5t-103 80.5t-56 119.5t1.5 147.5q16 78 60 146.5t105.5 119t136.5 80t153 29.5q85 0 140.5 -20t89.5 -50.5t49.5 -68t20.5 -71.5t3 -60.5t-4 -36.5q-18 -85 -56 -141.5t-82.5 -90t-88 -47.5t-71.5 -14q-26 0 -49.5 12.5t-26.5 40.5
q-29 -24 -64 -37.5t-67 -13.5t-55.5 12t-37 32.5t-17.5 48t2 58.5q10 51 39.5 105t71.5 98.5t94 73.5t108 29q35 0 63.5 -17t36.5 -50z" />
    <glyph glyph-name="A" unicode="A" horiz-adv-x="611" 
d="M432 637h-2l-193 -385h231zM394 722h117l85 -722h-103l-17 172h-279l-89 -172h-93z" />
    <glyph glyph-name="B" unicode="B" horiz-adv-x="611" 
d="M268 418h134q55 1 87.5 31.5t43.5 83.5q10 45 -10 77t-78 32h-130zM198 80h130q37 0 65 12t47.5 30t31 39.5t15.5 41.5q9 43 2 69.5t-26 41t-48.5 19.5t-64.5 5h-98zM90 0l150 722h235q37 0 62 -6t41 -16t25.5 -23.5t16.5 -28.5q6 -15 9 -29.5t3 -27.5t-1 -23.5t-2 -15.5
q-14 -68 -50 -111.5t-109 -59.5l-1 -5q75 -9 101 -53.5t11 -119.5q-15 -69 -45.5 -109.5t-68 -61.5t-76 -26.5t-69.5 -5.5h-232z" />
    <glyph glyph-name="C" unicode="C" horiz-adv-x="556" 
d="M507 523q8 31 10 59.5t-9 45.5q-5 9 -14.5 14.5t-20.5 9.5t-21.5 5.5t-17.5 1.5q-29 0 -50.5 -7.5t-36.5 -17t-23.5 -18.5t-10.5 -13q-2 -3 -7 -9.5t-11.5 -22t-15.5 -44t-18 -74.5l-40 -193q-14 -66 -12 -105.5t15 -60t35 -26.5t49 -6q10 0 30 4t42 19t42 45t32 83h95
q-17 -86 -51.5 -132t-73.5 -67.5t-74 -25t-53 -3.5q-22 0 -47.5 1.5t-49 10t-43 26.5t-30.5 49.5t-12 80t14 118.5l42 204q16 76 43 126.5t63.5 80.5t82 42.5t98.5 12.5q107 0 139.5 -54.5t4.5 -159.5h-95z" />
    <glyph glyph-name="D" unicode="D" horiz-adv-x="611" 
d="M191 80h87q48 0 83.5 10t61.5 35t44 66.5t31 104.5l30 146q23 109 -2 154.5t-97 45.5h-121zM233 722h222q69 0 112.5 -26t58.5 -84q6 -23 5 -58t-5 -70t-9 -63t-7 -37q-24 -116 -49 -185.5t-55 -105.5q-39 -47 -100.5 -70t-156.5 -23h-166z" />
    <glyph glyph-name="E" unicode="E" 
d="M81 0l150 722h372l-17 -80h-280l-48 -232h260l-17 -80h-260l-52 -250h286l-16 -80h-378z" />
    <glyph glyph-name="F" unicode="F" horiz-adv-x="444" 
d="M74 0l150 722h358l-17 -80h-266l-48 -232h252l-17 -80h-252l-68 -330h-92z" />
    <glyph glyph-name="G" unicode="G" horiz-adv-x="611" 
d="M536 529q14 64 -8 97.5t-92 33.5q-11 0 -33.5 -3t-48 -18t-49 -46.5t-35.5 -88.5l-50 -244q-12 -59 -12 -98q0 -38 12 -60.5t35 -31t56 -8.5q50 0 84.5 10.5t51.5 21.5l45 216h-133l17 80h225l-73 -351q-50 -24 -106.5 -39t-126.5 -15q-115 0 -157.5 64.5t-11.5 214.5
l50 237q22 108 91.5 172t184.5 64q117 0 162.5 -47.5t17.5 -160.5h-96z" />
    <glyph glyph-name="H" unicode="H" horiz-adv-x="611" 
d="M87 0l150 722h92l-65 -312h253l65 312h92l-150 -722h-92l68 330h-253l-68 -330h-92z" />
    <glyph glyph-name="I" unicode="I" horiz-adv-x="278" 
d="M185 0h-92l150 722h92z" />
    <glyph glyph-name="J" unicode="J" 
d="M172 224q-4 -24 -9.5 -52.5t-3 -53t17 -40.5t49.5 -16q37 0 61 14.5t39 38.5t24 55t16 64l102 488h92l-113 -543q-3 -15 -13 -47t-35.5 -64.5t-71.5 -57.5t-120 -25q-15 0 -35 3t-40 11t-36.5 22t-25.5 35q-14 36 -8.5 80t14.5 88h96z" />
    <glyph glyph-name="K" unicode="K" horiz-adv-x="556" 
d="M81 0l150 722h92l-66 -317h3l318 317h104l-330 -326l195 -396h-118l-175 377h-3l-78 -377h-92z" />
    <glyph glyph-name="L" unicode="L" horiz-adv-x="444" 
d="M81 0l150 722h92l-134 -642h265l-16 -80h-357z" />
    <glyph glyph-name="M" unicode="M" horiz-adv-x="833" 
d="M168 0h-86l150 722h149l56 -606h2l310 606h152l-150 -722h-92l133 642h-2l-335 -642h-87l-65 642h-2z" />
    <glyph glyph-name="N" unicode="N" horiz-adv-x="667" 
d="M731 722l-150 -722h-126l-155 626h-2l-130 -626h-82l150 722h130l152 -618h2l129 618h82z" />
    <glyph glyph-name="O" unicode="O" horiz-adv-x="611" 
d="M317 62q33 0 59.5 8.5t48 31t38.5 61t29 97.5l50 244q12 57 2 88.5t-29 46.5t-40.5 18t-32.5 3t-33.5 -3t-48 -18t-49 -46.5t-35.5 -88.5l-50 -244q-12 -59 -12 -98q0 -38 12 -60.5t35 -31t56 -8.5zM301 -15q-115 0 -157.5 64.5t-11.5 214.5l50 237q22 108 91.5 172
t184.5 64q57 0 96.5 -16.5t61 -47.5t26.5 -74.5t-6 -97.5l-50 -237q-31 -150 -100.5 -214.5t-184.5 -64.5z" />
    <glyph glyph-name="P" unicode="P" horiz-adv-x="556" 
d="M267 398h101q14 0 36.5 3.5t45.5 16t43 37t29 66.5q9 41 0.5 65t-23 36.5t-31 16t-23.5 3.5h-127zM93 0l150 722h214q36 0 70.5 -8.5t58 -31t33 -62.5t-3.5 -104q-13 -62 -42 -100.5t-64.5 -60t-72 -29.5t-64.5 -8h-121l-66 -318h-92z" />
    <glyph glyph-name="Q" unicode="Q" horiz-adv-x="611" 
d="M315 74q40 0 68.5 12t48 36t32.5 58.5t22 79.5l50 244q12 57 2 88.5t-29 46.5t-40.5 18t-32.5 3t-33.5 -3t-48 -18t-49 -46.5t-35.5 -88.5l-50 -244q-9 -45 -10.5 -79.5t8.5 -58.5t33 -36t64 -12zM176 501q22 108 91.5 172t184.5 64q57 0 96.5 -16.5t61 -47.5t26.5 -74.5
t-6 -97.5l-50 -237q-4 -20 -14.5 -50.5t-24.5 -61t-31 -55t-34 -31.5l2 -2q5 1 14 4t18.5 5.5t18.5 4.5t15 2h72l-16 -80h-300q-25 0 -51 1.5t-49.5 9.5t-43 24.5t-30.5 45.5t-12 73.5t12 109.5z" />
    <glyph glyph-name="R" unicode="R" horiz-adv-x="556" 
d="M256 412h138q25 0 45.5 10t36 26.5t26 38t15.5 45.5q4 19 3 39t-9.5 35.5t-24.5 25.5t-43 10h-139zM240 332l-69 -332h-92l150 722h249q48 0 78 -15.5t45 -41t17 -57.5t-5 -66q-13 -64 -56.5 -109t-109.5 -56l-1 -2q30 -5 50 -14t29.5 -29.5t9.5 -54.5t-9 -88
q-2 -12 -5.5 -36.5t-6 -53t-3.5 -55.5t1 -44h-96q-6 19 -5 45t5 57.5t10 66.5t11 71q4 33 -4.5 51.5t-23.5 27.5t-32 11t-29 2h-108z" />
    <glyph glyph-name="S" unicode="S" horiz-adv-x="556" 
d="M196 215l-4 -21q-8 -37 -2.5 -61.5t19.5 -39.5t34.5 -21.5t42.5 -6.5q55 0 97 26t56 91q6 30 -3 52.5t-28 40.5t-45 33.5t-53 31.5t-52 34t-43 41.5t-25.5 54t0.5 71.5q10 48 34 84.5t57.5 61.5t75 37.5t86.5 12.5q99 0 141 -50.5t15 -160.5h-96q6 30 6 54t-9 41
t-28.5 26.5t-52.5 9.5q-21 0 -42 -5.5t-39 -18t-32 -33t-20 -49.5q-8 -40 10.5 -66.5t50 -48t69 -42t68 -47.5t46.5 -65.5t4 -95.5t-38 -95.5t-62 -62t-78.5 -33.5t-87.5 -10q-53 -1 -87 11.5t-53.5 32t-27 45t-8 51t4 49.5t8.5 41h91z" />
    <glyph glyph-name="T" unicode="T" 
d="M636 722l-17 -80h-190l-133 -642h-92l133 642h-190l17 80h472z" />
    <glyph glyph-name="U" unicode="U" horiz-adv-x="611" 
d="M228 722h92l-96 -462q-12 -59 -11.5 -97.5t13 -61t35.5 -31t56 -8.5t60 8.5t49 31t39 61t29 97.5l96 462h92l-96 -458q-31 -150 -100.5 -214.5t-184.5 -64.5t-157.5 64.5t-11.5 214.5z" />
    <glyph glyph-name="V" unicode="V" horiz-adv-x="556" 
d="M332 0h-110l-59 722h100l33 -635h2l301 635h94z" />
    <glyph glyph-name="W" unicode="W" horiz-adv-x="889" 
d="M156 722h98l5 -626h2l276 626h119v-626h2l278 626h96l-341 -722h-112l-7 626h-2l-276 -626h-112z" />
    <glyph glyph-name="X" unicode="X" horiz-adv-x="556" 
d="M544 0h-111l-104 309l-223 -309h-100l285 374l-124 348h106l89 -280l209 280h101l-267 -348z" />
    <glyph glyph-name="Y" unicode="Y" 
d="M548 722h93l-290 -447l-57 -275h-92l57 275l-101 447h103l68 -349z" />
    <glyph glyph-name="Z" unicode="Z" 
d="M597 630l-472 -550h366l-16 -80h-451l21 104l462 536v2h-338l17 80h431z" />
    <glyph glyph-name="bracketleft" unicode="[" horiz-adv-x="278" 
d="M45 -118l182 874h166l-12 -56h-84l-158 -762h87l-12 -56h-169z" />
    <glyph glyph-name="backslash" unicode="\" horiz-adv-x="278" 
d="M149 722h67l58 -737h-67z" />
    <glyph glyph-name="bracketright" unicode="]" horiz-adv-x="278" 
d="M14 -118l12 56h87l158 762h-84l12 56h166l-182 -874h-169z" />
    <glyph glyph-name="asciicircum" unicode="^" 
d="M421 694l69 -417h-75l-46 318h-2l-176 -318h-68l238 417h60z" />
    <glyph glyph-name="underscore" unicode="_" 
d="M-25 -125l10 50h499l-10 -50h-499z" />
    <glyph glyph-name="quoteleft" unicode="&#x2018;" horiz-adv-x="222" 
d="M251 523h-108l124 199h69z" />
    <glyph glyph-name="a" unicode="a" 
d="M382 251q-30 0 -62.5 -1t-61 -10t-50.5 -29.5t-30 -60.5q-8 -37 5 -65t54 -28q19 0 40 7.5t41.5 28.5t37 59t26.5 99zM347 73h-2q-28 -44 -62.5 -63.5t-82.5 -19.5q-40 0 -64 12.5t-35 34.5t-11.5 52.5t7.5 66.5q12 57 44 89.5t74 47.5t89.5 18t90.5 2q6 25 10.5 50
t0.5 45t-19 32.5t-48 12.5q-42 0 -67.5 -25t-30.5 -65h-89q20 85 71 118.5t132 33.5q49 0 78 -12t43.5 -32.5t16 -48t-5.5 -59.5l-51 -243q-6 -30 -9 -60.5t-5 -59.5h-90z" />
    <glyph glyph-name="b" unicode="b" 
d="M217 273q-6 -29 -13.5 -66.5t-7 -70.5t15 -56t52.5 -23q39 0 63.5 18.5t40 46t24 60t14.5 61.5q10 51 15 89t0 64t-22 39t-50 13q-34 0 -57 -18t-38 -44.5t-23.5 -57t-13.5 -55.5zM161 0h-82l150 722h82l-56 -268h3q27 30 57.5 45.5t66.5 15.5q61 0 89.5 -24.5
t36.5 -63.5t1 -87.5t-17 -95.5q-17 -83 -41.5 -133t-53 -77t-60 -35.5t-61.5 -8.5q-40 0 -63.5 17.5t-37.5 52.5h-2z" />
    <glyph glyph-name="c" unicode="c" 
d="M407 343q7 31 5 51.5t-10 32.5t-19.5 16.5t-23.5 4.5q-24 0 -45 -7t-39 -25.5t-32.5 -51t-24.5 -84.5q-13 -62 -17 -104.5t2 -68.5t24 -38t50 -12q7 0 21 4.5t28.5 17t27.5 34t19 55.5h86q-10 -53 -34 -87.5t-53 -54.5t-58.5 -28t-50.5 -8q-40 0 -73.5 8.5t-53.5 35.5
t-24.5 77t12.5 134q12 55 27.5 104.5t43 86t70 58t108.5 21.5q76 0 108 -43.5t11 -128.5h-85z" />
    <glyph glyph-name="d" unicode="d" 
d="M395 273q5 25 9.5 55.5t1 57t-19 44.5t-49.5 18q-33 0 -55.5 -13t-38.5 -39t-27.5 -64t-21.5 -89q-6 -29 -11 -61.5t-1.5 -60t20.5 -46t56 -18.5q34 0 57 19.5t38 50.5t24.5 69.5t17.5 76.5zM489 722h82l-150 -722h-82l12 60h-2q-29 -35 -60 -52.5t-71 -17.5
q-30 0 -57.5 8.5t-45 35.5t-21 77t13.5 133q10 47 23 95.5t37.5 87.5t63.5 63.5t100 24.5q36 0 59.5 -15.5t38.5 -45.5h3z" />
    <glyph glyph-name="e" unicode="e" 
d="M408 288q12 55 11.5 87.5t-10.5 50t-27.5 22.5t-39.5 5q-20 0 -38.5 -6t-35.5 -24t-31.5 -50.5t-25.5 -84.5h197zM198 226q-11 -53 -11 -86t9.5 -51.5t27 -25t41.5 -6.5q42 0 70 29t38 67h90q-18 -84 -74.5 -123.5t-135.5 -39.5q-40 0 -73.5 8.5t-53.5 35.5t-24.5 77
t12.5 134q12 55 27.5 104.5t43 86t70 58t108.5 21.5q54 0 85.5 -15t45.5 -45.5t12 -76.5t-15 -109l-9 -43h-284z" />
    <glyph glyph-name="f" unicode="f" horiz-adv-x="278" 
d="M191 505l21 98q8 38 25 62t40.5 37.5t50.5 18t54 4.5q13 0 21.5 -0.5t17.5 -2.5l-13 -59q-32 2 -53 -3t-34 -15.5t-20 -24.5t-10 -29l-18 -86h102l-12 -62h-102l-92 -443h-82l92 443h-78l12 62h78z" />
    <glyph glyph-name="g" unicode="g" 
d="M394 255q6 28 12 61.5t3 62.5t-19 48.5t-55 19.5q-35 0 -58 -18.5t-38 -46t-23.5 -58.5t-13.5 -56q-12 -61 -13.5 -99.5t6.5 -61t24.5 -31t39.5 -8.5q37 0 60.5 19.5t38.5 48t22.5 61zM443 505h82l-115 -556q-9 -42 -28 -69.5t-47 -43t-63 -21.5t-77 -6q-32 0 -59 8
t-45 24.5t-24.5 42t3.5 60.5h92q-7 -35 10.5 -54t51.5 -19q43 0 70.5 24t35.5 63l22 105h-3q-23 -30 -57 -46.5t-67 -16.5q-51 0 -79 21t-38.5 57t-7 85t15.5 105q18 87 47.5 136.5t60.5 74t59 30.5t43 6q40 0 66.5 -17.5t36.5 -54.5h2z" />
    <glyph glyph-name="h" unicode="h" 
d="M346 0l71 342q4 23 4 42q0 20 -7.5 34t-23 22t-41.5 8q-31 0 -53.5 -11.5t-38 -32t-26 -48t-17.5 -59.5l-61 -297h-82l150 722h82l-59 -282h4q17 22 33.5 36.5t35 23t39 12t45.5 3.5q65 0 92 -35.5t9 -121.5l-74 -358h-82z" />
    <glyph glyph-name="i" unicode="i" horiz-adv-x="222" 
d="M215 722h92l-19 -88h-92zM152 0h-82l104 505h82z" />
    <glyph glyph-name="j" unicode="j" horiz-adv-x="222" 
d="M215 722h92l-19 -88h-92zM174 505h82l-119 -575q-6 -30 -16.5 -52.5t-29 -38t-47.5 -23t-74 -7.5l14 70q26 0 44.5 7.5t25.5 39.5z" />
    <glyph glyph-name="k" unicode="k" horiz-adv-x="444" 
d="M154 0h-82l150 722h82l-91 -435h2l199 218h100l-213 -217l139 -288h-104l-122 283h-2z" />
    <glyph glyph-name="l" unicode="l" horiz-adv-x="222" 
d="M152 0h-82l150 722h82z" />
    <glyph glyph-name="m" unicode="m" horiz-adv-x="722" 
d="M320 0l72 350q4 19 4.5 37t-5.5 31.5t-19.5 21.5t-38.5 8q-19 0 -42.5 -10t-35.5 -24q-16 -19 -24 -39.5t-11 -34.5l-70 -340h-82l83 400q5 26 9 52.5t7 52.5h87l-13 -63h2q27 41 62 57t80 16q17 0 34.5 -3.5t31.5 -11.5t24.5 -20.5t13.5 -29.5q29 40 64 52.5t70 12.5
q20 0 43 -3.5t41 -17t26.5 -39.5t-0.5 -71l-79 -384h-82l72 350q4 19 4.5 37t-5.5 31.5t-19.5 21.5t-38.5 8q-23 0 -35 -3t-31 -16q-11 -8 -19 -20t-13.5 -25t-9.5 -25t-5 -19l-70 -340h-82z" />
    <glyph glyph-name="n" unicode="n" 
d="M346 0l72 350q4 20 4 38t-7.5 31.5t-23 21t-41.5 7.5q-34 0 -57 -13.5t-38.5 -35t-24.5 -48t-14 -52.5l-62 -299h-82l83 400q5 26 9 52.5t7 52.5h87l-13 -65h4q33 43 67.5 59t83.5 16q40 0 64 -11.5t34.5 -33.5t10 -52.5t-8.5 -67.5l-72 -350h-82z" />
    <glyph glyph-name="o" unicode="o" 
d="M261 57q32 0 55 12t40.5 38t31 68.5t26.5 104.5q10 52 9.5 84.5t-10.5 51t-28 25.5t-42 7t-45 -7t-39 -25.5t-32.5 -51t-24.5 -84.5q-13 -62 -17 -104.5t2 -68.5t24 -38t50 -12zM247 -10q-40 0 -73.5 8.5t-53.5 35.5t-24.5 77t12.5 134q12 55 27.5 104.5t43 86t70 58
t108.5 21.5t99.5 -21.5t45.5 -58t7 -86t-17 -104.5q-17 -84 -42.5 -134t-57 -77t-68.5 -35.5t-77 -8.5z" />
    <glyph glyph-name="p" unicode="p" 
d="M267 57q33 0 55.5 13t38.5 38.5t27 63.5t22 89q6 28 11 61t1.5 61t-20.5 46.5t-56 18.5q-38 0 -62 -23t-38.5 -56.5t-22.5 -71t-14 -66.5q-5 -25 -9.5 -55.5t-1 -56.5t19 -44t49.5 -18zM253 445h2q29 35 60 52.5t71 17.5q30 0 57.5 -8.5t45 -35.5t21 -77t-13.5 -133
q-10 -47 -23 -95.5t-37.5 -87.5t-63.5 -63.5t-100 -24.5q-36 0 -59.5 15.5t-38.5 45.5h-3l-50 -242h-82l144 696h82z" />
    <glyph glyph-name="q" unicode="q" 
d="M255 57q34 0 57 18t38 44t23.5 56.5t13.5 55.5q6 29 13.5 66t6.5 70t-15.5 56t-52.5 23q-39 0 -63.5 -18t-39.5 -46t-23.5 -60.5t-14.5 -60.5q-11 -51 -15.5 -89t0.5 -63.5t22 -38.5t50 -13zM443 505h82l-144 -696h-82l50 242h-3q-27 -30 -57.5 -45.5t-66.5 -15.5
q-61 0 -89.5 24.5t-36.5 63.5t-1 87.5t17 95.5q17 83 41.5 133t53 77t60 35.5t61.5 8.5q40 0 63.5 -17.5t37.5 -52.5h2z" />
    <glyph glyph-name="r" unicode="r" horiz-adv-x="333" 
d="M246 429h2q19 29 37 46t38.5 26t44.5 11.5t54 2.5l-18 -85q-5 1 -10.5 1.5t-10.5 1.5t-10.5 1.5t-11.5 0.5q-34 0 -58.5 -12t-41.5 -31t-27 -44t-16 -50l-61 -298h-82l104 505h82z" />
    <glyph glyph-name="s" unicode="s" horiz-adv-x="444" 
d="M426 144q-9 -42 -28.5 -71t-47 -47.5t-61.5 -27t-71 -8.5q-82 0 -121 38.5t-18 125.5h93q-3 -11 -5 -27.5t2.5 -32t19.5 -26.5t46 -11q37 0 66 19t37 58q5 22 -10.5 38.5t-40.5 31t-54.5 29t-53.5 34t-37 46t-5 64.5q4 20 16.5 44t36 45t60.5 35t90 14q34 0 62.5 -8.5
t47 -25.5t24.5 -44.5t-4 -64.5h-91q18 81 -62 81q-33 0 -59 -17.5t-33 -50.5q-5 -22 10.5 -38t40.5 -30t54.5 -28t53.5 -33.5t37 -46.5t5 -65z" />
    <glyph glyph-name="t" unicode="t" horiz-adv-x="278" 
d="M185 505l21 97l89 37l-28 -134h110l-12 -62h-110l-65 -309q-2 -12 -3.5 -25t3 -23.5t18.5 -17.5t42 -7q5 0 14.5 1t23.5 3l-13 -63q-20 -2 -41.5 -5t-41.5 -3q-59 0 -81 23t-13 67l75 359h-83l12 62h83z" />
    <glyph glyph-name="u" unicode="u" 
d="M446 505h82l-83 -400q-5 -26 -9 -52.5t-7 -52.5h-87l12 61h-3q-27 -35 -65 -53t-78 -18q-66 0 -94 32.5t-15 97.5l80 385h82l-72 -350q-10 -46 5.5 -74t59.5 -28q16 0 35 6.5t36 20.5t31 36t21 54z" />
    <glyph glyph-name="v" unicode="v" horiz-adv-x="444" 
d="M118 505h92l25 -428h2l210 428h86l-262 -505h-107z" />
    <glyph glyph-name="w" unicode="w" horiz-adv-x="722" 
d="M113 505h91l1 -435h2l202 435h116l13 -435h2l190 435h87l-239 -505h-110l-19 430h-2l-202 -430h-110z" />
    <glyph glyph-name="x" unicode="x" horiz-adv-x="444" 
d="M437 0h-108l-74 207l-152 -207h-97l211 264l-94 241h105l59 -181l139 181h99l-201 -241z" />
    <glyph glyph-name="y" unicode="y" horiz-adv-x="444" 
d="M243 94h2l206 411h89l-373 -696h-85l97 191l-67 505h95z" />
    <glyph glyph-name="z" unicode="z" horiz-adv-x="389" 
d="M436 430l-299 -363h230l-13 -67h-319l16 77l294 359l1 2h-209l13 67h301z" />
    <glyph glyph-name="braceleft" unicode="{" horiz-adv-x="274" 
d="M183 24q-4 -21 -3.5 -37.5t8 -28t23 -17.5t41.5 -6l-12 -56q-50 -2 -81 5.5t-46.5 25.5t-17.5 46.5t7 69.5l41 197q5 25 1.5 38.5t-14 21t-26.5 12t-34 12.5l12 56q43 9 70.5 24t35.5 53l39 186q11 53 36 80t54.5 38t58.5 11.5t47 0.5l-12 -56q-54 0 -75.5 -23.5
t-30.5 -66.5l-31 -153q-5 -24 -13.5 -43.5t-23 -35t-36.5 -26t-55 -16.5v-2q31 -7 48.5 -19.5t25 -30t6.5 -39.5t-7 -49z" />
    <glyph glyph-name="bar" unicode="|" horiz-adv-x="250" 
d="M249 750h62l-207 -1000h-62z" />
    <glyph glyph-name="braceright" unicode="}" horiz-adv-x="274" 
d="M134 196q6 27 14 49t23 39.5t37.5 30t56.5 19.5v2q-30 6 -47.5 16.5t-25.5 26t-8 34.5q0 20 5 44l31 153q4 21 4.5 38t-7 28.5t-23 17.5t-42.5 6l12 56h29q18 0 36 -2.5t35 -9.5t29 -21.5t16 -38t-3 -58.5l-39 -186q-8 -38 13 -53t61 -24l-12 -56q-21 -8 -38.5 -12.5
t-31 -12t-23 -21t-14.5 -38.5l-41 -197q-9 -41 -22.5 -69.5t-36 -46.5t-56.5 -25.5t-84 -5.5l12 56q52 0 74 23.5t30 65.5z" />
    <glyph glyph-name="asciitilde" unicode="~" 
d="M230 332q22 0 44.5 -10.5t43.5 -24.5q23 -13 42.5 -24t35.5 -11q14 0 27.5 8t26.5 20t24 26.5t20 28.5l24 -47q-13 -20 -28.5 -40t-33.5 -36t-37 -25.5t-40 -9.5q-11 0 -25 5t-27.5 12t-26.5 14.5t-22 12.5q-14 8 -30 16.5t-34 8.5q-16 0 -30.5 -8.5t-27 -21.5t-23.5 -29
t-21 -31l-24 48q14 21 29.5 42t33.5 38t37.5 27.5t41.5 10.5z" />
    <glyph glyph-name="exclamdown" unicode="&#xa1;" horiz-adv-x="333" 
d="M302 427h-94l22 104h94zM278 364l-97 -555h-109l135 555h71z" />
    <glyph glyph-name="cent" unicode="&#xa2;" horiz-adv-x="444" 
d="M362 439q-11 9 -31 9q-24 0 -45 -7t-39 -25.5t-32.5 -51t-24.5 -84.5q-11 -48 -16 -84t-4 -62h2zM431 168q-9 -42 -29.5 -75.5t-48 -56.5t-58.5 -35t-60 -12q-28 0 -53 4t-45 16l-42 -67l-33 16l46 75q-20 28 -24.5 78t12.5 134q12 55 27.5 104.5t43 86t70 58t108.5 21.5
q33 0 59 -9l39 63l32 -15l-40 -64q55 -40 29 -147h-85q8 38 5 63l-200 -321q17 -29 65 -29q19 0 35 9.5t28 25.5t20 36t13 41h86z" />
    <glyph glyph-name="sterling" unicode="&#xa3;" horiz-adv-x="444" 
d="M82 418h80l17 81q2 7 4.5 25t10.5 41t22.5 47.5t39 45t60.5 34t87 13.5q86 0 123.5 -46t14.5 -134h-96q5 21 5.5 39.5t-5.5 33t-20 22.5t-39 8q-35 0 -55 -11.5t-32 -29.5t-17.5 -40t-9.5 -44l-18 -85h138l-16 -80h-138l-54 -258h260l-16 -80h-426l16 80h74l54 258h-80z
" />
    <glyph glyph-name="fraction" unicode="&#x2044;" horiz-adv-x="167" 
d="M-172 -30l592 749h62l-591 -749h-63z" />
    <glyph glyph-name="fraction" unicode="&#x2215;" horiz-adv-x="167" 
d="M-172 -30l592 749h62l-591 -749h-63z" />
    <glyph glyph-name="yen" unicode="&#xa5;" horiz-adv-x="444" 
d="M107 199h114l14 66h-114l14 67h89l-82 362h97l63 -321l201 321h88l-235 -362h91l-14 -67h-116l-14 -66h116l-14 -67h-116l-27 -132h-82l27 132h-114z" />
    <glyph glyph-name="florin" unicode="&#x192;" horiz-adv-x="444" 
d="M23 -104q27 -2 43.5 5.5t27 21.5t17 32.5t14.5 39.5l144 396h-91l24 62h89l29 80q8 22 21.5 52t36 56.5t55 45t79.5 18.5q11 0 21.5 -1.5t21.5 -2.5l-25 -67q-2 1 -9 2.5t-15 1.5q-22 0 -39 -10t-29 -24.5t-19.5 -29.5t-10.5 -24l-36 -97h98l-22 -62h-98l-159 -440
q-17 -45 -40 -70t-49 -37t-53 -14t-50 -1z" />
    <glyph glyph-name="section" unicode="&#xa7;" horiz-adv-x="444" 
d="M276 284q9 2 24 9t31 18t29 26.5t17 35.5q4 21 -3 34.5t-19 21.5t-25.5 12.5t-22.5 8.5q-6 -2 -20 -8t-29 -16.5t-28.5 -25.5t-17.5 -36q-5 -21 -1 -33.5t13.5 -20.5t23 -13.5t28.5 -12.5zM87 91q7 -2 17.5 -6.5t26 -9.5t35 -9t44.5 -4q17 0 35 3.5t33.5 12t26.5 21
t15 30.5q6 27 -8.5 43t-38.5 27t-53 20.5t-52.5 24.5t-36.5 38t-5 61q11 51 47.5 80t82.5 49q-36 19 -56 45t-10 73q8 39 29.5 67t50 45.5t61 26t63.5 8.5q59 0 110 -19l-18 -84q-24 9 -49.5 17.5t-53.5 8.5q-14 0 -30 -4t-29.5 -11.5t-24 -19.5t-13.5 -28q-6 -26 7.5 -41
t35.5 -26t48.5 -20.5t48 -23.5t33 -36.5t4.5 -58.5q-10 -48 -47 -82.5t-83 -48.5l-1 -2q21 -5 38.5 -15.5t29.5 -25.5t16.5 -35t-0.5 -44q-8 -41 -29.5 -70t-51.5 -47.5t-65.5 -27t-72.5 -8.5q-33 0 -65 5.5t-62 14.5z" />
    <glyph glyph-name="currency" unicode="&#xa4;" horiz-adv-x="444" 
d="M327 486q-35 0 -65.5 -14.5t-54.5 -39.5t-41 -59t-25 -73q-8 -36 -4.5 -69.5t16.5 -58.5t36 -40t55 -15q34 0 64 14.5t54 40t41 59.5t25 72q7 36 4.5 69t-15 58.5t-35 40.5t-55.5 15zM71 152q-14 35 -17.5 70t5.5 78q9 45 26 80t48 71l-30 43l58 53l30 -43
q36 26 73.5 37.5t75.5 11.5q37 0 66.5 -13t54.5 -36l49 43l36 -53l-47 -43q14 -37 17 -73.5t-7 -82.5q-9 -42 -26.5 -75t-45.5 -68l29 -42l-58 -53l-31 43q-71 -50 -149 -50q-38 0 -66.5 13.5t-54.5 36.5l-48 -43l-36 53z" />
    <glyph glyph-name="quotesingle" unicode="'" horiz-adv-x="250" 
d="M245 722h60l-43 -207h-60z" />
    <glyph glyph-name="quotedblleft" unicode="&#x201c;" horiz-adv-x="444" 
d="M446 522h-108l123 199h69zM279 522h-108l123 199h69z" />
    <glyph glyph-name="guillemotleft" unicode="&#xab;" horiz-adv-x="444" 
d="M259 270l133 196h76l-119 -196l38 -193h-78zM87 270l133 196h76l-119 -196l38 -193h-78z" />
    <glyph glyph-name="guilsinglleft" unicode="&#x2039;" horiz-adv-x="222" 
d="M80 270l133 196h76l-119 -196l38 -193h-78z" />
    <glyph glyph-name="guilsinglright" unicode="&#x203a;" horiz-adv-x="222" 
d="M46 77l118 193l-39 196h76l53 -196l-130 -193h-78z" />
    <glyph glyph-name="fi" unicode="&#xfb01;" 
d="M486 722h92l-19 -88h-92zM423 0h-82l104 505h82zM191 505l21 98q8 38 25 62t40.5 37.5t50.5 18t54 4.5q13 0 21.5 -0.5t17.5 -2.5l-13 -59q-32 2 -53 -3t-34 -15.5t-20 -24.5t-10 -29l-18 -86h102l-12 -62h-102l-92 -443h-82l92 443h-78l12 62h78z" />
    <glyph glyph-name="fl" unicode="&#xfb02;" 
d="M430 0h-82l150 722h82zM191 505l21 98q8 38 25 62t40.5 37.5t50.5 18t54 4.5q13 0 21.5 -0.5t17.5 -2.5l-13 -59q-32 2 -53 -3t-34 -15.5t-20 -24.5t-10 -29l-18 -86h102l-12 -62h-102l-92 -443h-82l92 443h-78l12 62h78z" />
    <glyph glyph-name="endash" unicode="&#x2013;" 
d="M62 299h500l-12 -56h-500z" />
    <glyph glyph-name="dagger" unicode="&#x2020;" horiz-adv-x="444" 
d="M285 505h-142l14 67h142l32 150h82l-32 -150h142l-14 -67h-142l-104 -505h-82z" />
    <glyph glyph-name="daggerdbl" unicode="&#x2021;" horiz-adv-x="444" 
d="M144 505l14 67h140l32 150h82l-32 -150h141l-14 -67h-141l-59 -288h141l-14 -67h-141l-31 -150h-82l31 150h-140l14 67h140l59 288h-140z" />
    <glyph glyph-name="periodcentered" unicode="&#xb7;" horiz-adv-x="222" 
d="M199 201h-94l22 104h94z" />
    <glyph glyph-name="periodcentered" unicode="&#x2219;" horiz-adv-x="222" 
d="M199 201h-94l22 104h94z" />
    <glyph glyph-name="paragraph" unicode="&#xb6;" horiz-adv-x="440" 
d="M235 338q-31 0 -56.5 15t-41.5 41t-22 60.5t2 73.5q5 23 18 56.5t38.5 64t66.5 52t101 21.5h196l-176 -843h-70l162 776h-82l-162 -776h-70z" />
    <glyph glyph-name="bullet" unicode="&#x2022;" horiz-adv-x="333" 
d="M395 361q-7 -31 -25 -59t-43.5 -49t-56 -33t-61.5 -12t-56.5 12t-42 33t-23 49t0.5 59q6 31 24 59t43.5 49t56 33.5t61.5 12.5t56.5 -12.5t42 -33.5t23 -49t0.5 -59z" />
    <glyph glyph-name="quotesinglbase" unicode="&#x201a;" horiz-adv-x="222" 
d="M96 88h108l-124 -199h-69z" />
    <glyph glyph-name="quotedblbase" unicode="&#x201e;" horiz-adv-x="444" 
d="M124 88h108l-124 -199h-69zM291 88h108l-124 -199h-69z" />
    <glyph glyph-name="quotedblright" unicode="&#x201d;" horiz-adv-x="444" 
d="M423 722h108l-124 -199h-69zM256 722h108l-124 -199h-69z" />
    <glyph glyph-name="guillemotright" unicode="&#xbb;" horiz-adv-x="444" 
d="M261 77l118 193l-39 196h76l53 -196l-130 -193h-78zM89 77l118 193l-39 196h76l53 -196l-130 -193h-78z" />
    <glyph glyph-name="ellipsis" unicode="&#x2026;" horiz-adv-x="1000" 
d="M547 0h-94l21 104h94zM880 0h-94l21 104h94zM214 0h-94l21 104h94z" />
    <glyph glyph-name="perthousand" unicode="&#x2030;" horiz-adv-x="889" 
d="M229 438q22 0 36.5 17t23 40.5t13.5 47.5t8 39t6 31.5t1.5 31t-10.5 24t-29 9.5t-32.5 -9.5t-20 -24t-11 -31t-6.5 -31.5t-9 -39t-6.5 -47.5t6.5 -40.5t30 -17zM758 41q22 0 36.5 17t23.5 40.5t13.5 47.5t7.5 39t6 31.5t1.5 31t-10 24t-28.5 9.5t-32.5 -9.5t-20 -24
t-11.5 -31t-7 -31.5t-8.5 -39t-6.5 -47.5t6 -40.5t30 -17zM467 41q22 0 36.5 17t23.5 40.5t13.5 47.5t7.5 39t6 31.5t1.5 31t-10 24t-28.5 9.5t-32.5 -9.5t-20 -24t-11.5 -31t-7 -31.5t-8.5 -39t-6.5 -47.5t6 -40.5t30 -17zM594 760h63l-509 -794h-61zM529 337
q42 0 62.5 -14t26.5 -37.5t1.5 -54.5t-11.5 -64q-6 -32 -15.5 -64.5t-26.5 -58.5t-43.5 -42.5t-67.5 -16.5t-60.5 16.5t-25.5 42.5t-1.5 58.5t10.5 64.5q7 33 16 64t25 54.5t42 37.5t68 14zM820 337q42 0 62.5 -14t26.5 -37.5t1.5 -54.5t-11.5 -64q-6 -32 -15.5 -64.5
t-26.5 -58.5t-43.5 -42.5t-67.5 -16.5t-60.5 16.5t-25.5 42.5t-1.5 58.5t10.5 64.5q7 33 16 64t25 54.5t42 37.5t68 14zM290 734q42 0 62.5 -14t26.5 -37.5t2 -54.5t-11 -64q-7 -32 -16.5 -64.5t-26 -58.5t-43 -42.5t-67.5 -16.5t-60.5 16.5t-25.5 42.5t-2 58.5t11 64.5
q7 33 15.5 64t24.5 54.5t42 37.5t68 14z" />
    <glyph glyph-name="questiondown" unicode="&#xbf;" horiz-adv-x="444" 
d="M360 427h-94l22 104h94zM314 234q-7 -33 -31.5 -61.5t-54 -60t-56 -68t-36.5 -85.5q-3 -17 -2.5 -34t6.5 -31.5t18.5 -23.5t32.5 -9q27 0 45 14.5t29.5 35.5t18 45t10.5 44h94q-8 -46 -24 -84t-42.5 -65t-63.5 -42t-87 -15q-78 0 -111.5 45.5t-17.5 121.5q13 62 43 105
t61.5 75.5t58 58.5t32.5 55l19 93h82z" />
    <glyph glyph-name="grave" unicode="`" horiz-adv-x="278" 
d="M279 722l59 -141h-67l-101 141h109z" />
    <glyph glyph-name="acute" unicode="&#xb4;" horiz-adv-x="278" 
d="M408 722l-161 -141h-67l119 141h109z" />
    <glyph glyph-name="circumflex" unicode="&#x2c6;" horiz-adv-x="278" 
d="M279 675l-86 -94h-80l130 141h92l70 -141h-80z" />
    <glyph glyph-name="tilde" unicode="&#x2dc;" horiz-adv-x="278" 
d="M453 694q-7 -21 -19 -41t-28 -35t-36 -24t-44 -9q-17 0 -34 6t-34 13q-17 8 -34 13.5t-34 5.5t-33.5 -14t-21.5 -31h-46q14 46 45 77t81 31q20 0 37.5 -5.5t33.5 -12.5q16 -8 29.5 -13.5t25.5 -5.5q46 0 61 45h51z" />
    <glyph glyph-name="macron" unicode="&#xaf;" horiz-adv-x="278" 
d="M415 664l-12 -56h-276l12 56h276z" />
    <glyph glyph-name="macron" unicode="&#x2c9;" horiz-adv-x="278" 
d="M415 664l-12 -56h-276l12 56h276z" />
    <glyph glyph-name="breve" unicode="&#x2d8;" horiz-adv-x="278" 
d="M184 722q-2 -42 23 -60.5t65 -18.5q42 0 73 18.5t49 60.5h49q-21 -64 -67 -99.5t-112 -35.5q-69 0 -104.5 31t-24.5 104h49z" />
    <glyph glyph-name="dotaccent" unicode="&#x2d9;" horiz-adv-x="278" 
d="M308 590h-94l22 104h94z" />
    <glyph glyph-name="dieresis" unicode="&#xa8;" horiz-adv-x="278" 
d="M396 590h-94l22 104h94zM220 590h-94l22 104h94z" />
    <glyph glyph-name="ring" unicode="&#x2da;" horiz-adv-x="278" 
d="M338 671q5 25 -9.5 42.5t-38.5 17.5q-25 0 -46 -17.5t-26 -42.5q-5 -24 9 -42t39 -18q24 0 45.5 18t26.5 42zM257 570q-42 0 -65.5 29t-14.5 72q4 21 16 39.5t28.5 32t36.5 21.5t41 8t38 -8t27.5 -22t14.5 -32t0 -39q-5 -21 -16.5 -39.5t-28 -32t-36.5 -21.5t-41 -8z" />
    <glyph glyph-name="cedilla" unicode="&#xb8;" horiz-adv-x="278" 
d="M47 -86l81 86h48l-59 -60l2 -2q6 2 14.5 4t16.5 2q34 0 54.5 -19.5t12.5 -56.5q-5 -26 -19.5 -43.5t-33.5 -28.5t-41 -16t-41 -5q-28 0 -52 7t-42 15l25 40q15 -6 29 -10.5t32 -4.5q19 0 40 8.5t26 31.5q5 21 -8 31t-33 10q-10 0 -20 -3t-19 -5z" />
    <glyph glyph-name="hungarumlaut" unicode="&#x2dd;" horiz-adv-x="444" 
d="M571 722l-161 -141h-67l119 141h109zM388 722l-161 -141h-67l119 141h109z" />
    <glyph glyph-name="ogonek" unicode="&#x2db;" horiz-adv-x="278" 
d="M209 -169q-23 -8 -53 -15t-58 -7q-18 0 -35.5 5t-30.5 16t-19.5 28t-1.5 42q4 19 19.5 35t36.5 29t44 22t42 14l59 2v-2q-53 -17 -82 -40.5t-34 -44.5q-5 -26 5.5 -38t29.5 -12q18 0 39 5t51 15z" />
    <glyph glyph-name="caron" unicode="&#x2c7;" horiz-adv-x="278" 
d="M435 722l-130 -141h-92l-70 141h80l46 -94l86 94h80z" />
    <glyph glyph-name="emdash" unicode="&#x2014;" horiz-adv-x="1000" 
d="M62 299h1000l-12 -56h-1000z" />
    <glyph glyph-name="AE" unicode="&#xc6;" horiz-adv-x="833" 
d="M527 648h-2l-251 -396h226zM15 0l467 722h448l-17 -80h-297l-17 -232h258l-17 -80h-244l-17 -250h227l-16 -80h-306l10 172h-274l-108 -172h-97z" />
    <glyph glyph-name="ordfeminine" unicode="&#xaa;" horiz-adv-x="300" 
d="M325 579q-21 0 -42.5 -1t-40 -6t-32.5 -17.5t-19 -36.5q-5 -22 3 -38.5t34 -16.5q12 0 27 4.5t28.5 17t24.5 35t17 59.5zM304 472h-2q-17 -26 -42 -38t-56 -12q-52 0 -69.5 27.5t-8.5 72.5q7 34 29 54t52 30t63 12.5t63 1.5q3 13 4.5 27t-2 24.5t-14.5 17.5t-32 7
q-27 0 -46 -13t-21 -37h-63q13 51 50.5 71t90.5 20q35 0 57.5 -7t34 -19.5t14.5 -29t-1 -35.5l-31 -146q-4 -18 -5.5 -36.5t-2.5 -35.5h-72z" />
    <glyph glyph-name="Oslash" unicode="&#xd8;" horiz-adv-x="611" 
d="M217 140q6 -44 31 -61t69 -17q33 0 59.5 8.5t48 31t38.5 61t29 97.5l50 244q3 9 3 16zM546 579q-5 29 -18.5 45.5t-29.5 24.5t-31.5 9.5t-24.5 1.5q-11 0 -33.5 -3t-48 -18t-49 -46.5t-35.5 -88.5l-50 -244q-4 -18 -6.5 -34t-3.5 -30zM127 92q-18 60 5 172l50 237
q22 108 91.5 172t184.5 64q62 0 102.5 -19t60.5 -52l67 79l31 -23l-82 -95q15 -50 -1 -126l-50 -237q-31 -150 -100.5 -214.5t-184.5 -64.5q-116 0 -158 69l-75 -87l-30 23z" />
    <glyph glyph-name="OE" unicode="&#x152;" horiz-adv-x="833" 
d="M554 642h-132q-30 0 -55 -8.5t-45.5 -31.5t-36.5 -63.5t-29 -105.5l-34 -160q-9 -43 -11 -78.5t7.5 -61t32 -39.5t62.5 -14h124zM926 642h-280l-48 -232h260l-17 -80h-260l-52 -250h286l-16 -80h-477q-65 0 -109.5 14.5t-68.5 47t-28 83.5t11 124l35 168
q16 79 42.5 133.5t62 88t80 48.5t98.5 15h498z" />
    <glyph glyph-name="ordmasculine" unicode="&#xba;" horiz-adv-x="300" 
d="M246 463q21 0 35 7t24 22.5t17 41t15 62.5q7 31 7 50q0 20 -6 31t-17.5 15t-26.5 4t-28 -4t-23.5 -15t-18.5 -30.5t-15 -50.5q-8 -37 -10.5 -62.5t1 -41t14.5 -22.5t32 -7zM237 422q-26 0 -48.5 5t-37 21t-19 46.5t6.5 80.5q7 33 17.5 62.5t29 51.5t46.5 35t71 13t66 -13
t32 -35t7 -51.5t-9 -62.5q-11 -50 -27.5 -80.5t-38 -46.5t-46 -21t-50.5 -5z" />
    <glyph glyph-name="ae" unicode="&#xe6;" horiz-adv-x="778" 
d="M686 302q6 26 8.5 53t-3.5 48.5t-23 35.5t-50 14q-12 0 -29.5 -4.5t-36 -20t-35 -45.5t-27.5 -81h196zM390 240q-29 0 -61.5 -0.5t-61 -9t-50.5 -29t-30 -60.5q-8 -37 5.5 -60.5t55.5 -23.5q19 0 40 6t40.5 25t36 55.5t25.5 96.5zM477 240q-5 -27 -10 -58.5t-2.5 -59.5
t18 -46.5t53.5 -18.5q51 0 77.5 29.5t38.5 75.5h89q-6 -27 -17.5 -57.5t-36.5 -56t-65.5 -42t-104.5 -16.5q-23 0 -44.5 5.5t-39 16.5t-28.5 28t-14 41q-32 -50 -80 -70.5t-98 -20.5q-72 0 -102 39.5t-15 111.5q13 63 45 95t75 45.5t91.5 15.5t95.5 5l11 51q11 50 -5 75
t-68 25q-42 0 -67.5 -25t-30.5 -65h-89q20 85 71 118.5t132 33.5q22 0 44 -2.5t39.5 -10t29.5 -22t15 -38.5h2q10 20 26.5 34t36 22.5t40.5 12.5t41 4t42 -2t42.5 -10.5t36.5 -26t24 -48t5 -76.5t-21 -112h-283z" />
    <glyph glyph-name="dotlessi" unicode="&#x131;" horiz-adv-x="222" 
d="M70 0l104 505h82l-104 -505h-82z" />
    <glyph glyph-name="oslash" unicode="&#xf8;" 
d="M188 104q13 -47 73 -47q32 0 55 12t40.5 38t31 68.5t26.5 104.5q10 49 9 79zM417 403q-8 26 -27.5 35.5t-46.5 9.5q-24 0 -45 -7t-39 -25.5t-32.5 -51t-24.5 -84.5q-18 -83 -18 -130zM544 539l27 -20l-72 -78q14 -37 9.5 -87.5t-16.5 -108.5q-17 -84 -42.5 -134t-57 -77
t-68.5 -35.5t-77 -8.5t-73 8.5t-53 34.5l-62 -68l-26 22l72 78q-11 30 -10.5 73.5t13.5 106.5q12 55 27.5 104.5t43 86t70 58t108.5 21.5q48 0 77.5 -11.5t47.5 -31.5z" />
    <glyph glyph-name="oe" unicode="&#x153;" horiz-adv-x="778" 
d="M695 288q12 55 11 87t-10.5 48t-27.5 20.5t-40 4.5q-20 0 -38.5 -5.5t-35 -22t-31 -48.5t-25.5 -84h197zM261 57q32 0 55 12t40.5 38t31 68.5t26.5 104.5q10 52 9.5 84.5t-10.5 51t-28 25.5t-42 7t-45 -7t-39 -25.5t-32.5 -51t-24.5 -84.5q-13 -62 -17 -104.5t2 -68.5
t24 -38t50 -12zM485 226q-11 -53 -11 -86t9.5 -51.5t27 -25t41.5 -6.5q42 0 70 29t38 67h90q-18 -84 -74.5 -123.5t-135.5 -39.5q-24 0 -47 3t-41.5 12t-31 24.5t-16.5 40.5q-35 -47 -73.5 -63.5t-83.5 -16.5q-40 0 -73.5 8.5t-53.5 35.5t-24.5 77t12.5 134
q12 55 27.5 104.5t43 86t70 58t108.5 21.5q22 0 45 -4t41.5 -13.5t29.5 -25.5t10 -41h2q26 45 67 64.5t98 19.5q54 0 85.5 -15t45.5 -45.5t12 -76.5t-15 -109l-9 -43h-284z" />
    <glyph glyph-name="germandbls" unicode="&#xdf;" horiz-adv-x="556" 
d="M533 155q-4 -19 -14 -47.5t-31 -54.5t-55.5 -45t-88.5 -19q-33 0 -59 7t-42.5 23.5t-22 42t2.5 63.5h86q-8 -31 4 -50t44 -19q21 0 36 8t25.5 21t17 29.5t9.5 33.5q6 29 -1.5 50t-22.5 38t-33.5 32t-33 32.5t-22 40.5t-0.5 56q5 24 26 46t45 44q23 22 44 44.5t26 46.5
q9 46 -11 69t-63 23q-40 0 -64 -12t-38.5 -30t-21 -40t-10.5 -42l-113 -546h-82l120 579q10 48 37.5 78.5t61.5 48t67.5 24.5t54.5 7q37 0 69.5 -7.5t54.5 -24.5t31 -46.5t0 -72.5q-8 -37 -29.5 -61.5t-45.5 -44.5t-45.5 -37.5t-26.5 -40.5q-4 -18 5.5 -32.5t24.5 -29.5
t33 -31.5t32 -37.5t20.5 -49.5t-1.5 -66.5z" />
    <glyph glyph-name="degree" unicode="&#xb0;" horiz-adv-x="400" 
d="M403 555q7 36 -13.5 62t-57.5 26q-18 0 -35.5 -7t-31.5 -19t-24.5 -28t-13.5 -34q-8 -37 12.5 -62.5t57.5 -25.5q18 0 35.5 7t32 19t24.5 28t14 34zM465 555q-6 -31 -23.5 -58.5t-42.5 -47.5t-54.5 -32t-60.5 -12t-56 12t-41 32t-22 47.5t0 58.5t23.5 58t42 47.5
t54.5 32.5t61 12t55.5 -12t41 -32.5t22.5 -47.5t0 -58z" />
    <glyph glyph-name="oacute" unicode="&#xf3;" 
d="M519 722l-161 -141h-67l119 141h109zM261 57q32 0 55 12t40.5 38t31 68.5t26.5 104.5q10 52 9.5 84.5t-10.5 51t-28 25.5t-42 7t-45 -7t-39 -25.5t-32.5 -51t-24.5 -84.5q-13 -62 -17 -104.5t2 -68.5t24 -38t50 -12zM247 -10q-40 0 -73.5 8.5t-53.5 35.5t-24.5 77
t12.5 134q12 55 27.5 104.5t43 86t70 58t108.5 21.5t99.5 -21.5t45.5 -58t7 -86t-17 -104.5q-17 -84 -42.5 -134t-57 -77t-68.5 -35.5t-77 -8.5z" />
    <glyph glyph-name="Odieresis" unicode="&#xd6;" horiz-adv-x="611" 
d="M608 807h-94l22 104h94zM432 807h-94l22 104h94zM317 62q33 0 59.5 8.5t48 31t38.5 61t29 97.5l50 244q12 57 2 88.5t-29 46.5t-40.5 18t-32.5 3t-33.5 -3t-48 -18t-49 -46.5t-35.5 -88.5l-50 -244q-12 -59 -12 -98q0 -38 12 -60.5t35 -31t56 -8.5zM301 -15
q-115 0 -157.5 64.5t-11.5 214.5l50 237q22 108 91.5 172t184.5 64q57 0 96.5 -16.5t61 -47.5t26.5 -74.5t-6 -97.5l-50 -237q-31 -150 -100.5 -214.5t-184.5 -64.5z" />
    <glyph glyph-name="odieresis" unicode="&#xf6;" 
d="M507 590h-94l22 104h94zM331 590h-94l22 104h94zM261 57q32 0 55 12t40.5 38t31 68.5t26.5 104.5q10 52 9.5 84.5t-10.5 51t-28 25.5t-42 7t-45 -7t-39 -25.5t-32.5 -51t-24.5 -84.5q-13 -62 -17 -104.5t2 -68.5t24 -38t50 -12zM247 -10q-40 0 -73.5 8.5t-53.5 35.5
t-24.5 77t12.5 134q12 55 27.5 104.5t43 86t70 58t108.5 21.5t99.5 -21.5t45.5 -58t7 -86t-17 -104.5q-17 -84 -42.5 -134t-57 -77t-68.5 -35.5t-77 -8.5z" />
    <glyph glyph-name="Ecircumflex" unicode="&#xca;" 
d="M435 892l-86 -94h-80l130 141h92l70 -141h-80zM81 0l150 722h372l-17 -80h-280l-48 -232h260l-17 -80h-260l-52 -250h286l-16 -80h-378z" />
    <glyph glyph-name="ucircumflex" unicode="&#xfb;" 
d="M390 675l-86 -94h-80l130 141h92l70 -141h-80zM446 505h82l-83 -400q-5 -26 -9 -52.5t-7 -52.5h-87l12 61h-3q-27 -35 -65 -53t-78 -18q-66 0 -94 32.5t-15 97.5l80 385h82l-72 -350q-10 -46 5.5 -74t59.5 -28q16 0 35 6.5t36 20.5t31 36t21 54z" />
    <glyph glyph-name="logicalnot" unicode="&#xac;" 
d="M461 322h-352l13 62h414l-55 -267h-62z" />
    <glyph glyph-name="Edieresis" unicode="&#xcb;" 
d="M376 807h-94l22 104h94zM552 807h-94l22 104h94zM81 0l150 722h372l-17 -80h-280l-48 -232h260l-17 -80h-260l-52 -250h286l-16 -80h-378z" />
    <glyph glyph-name="Otilde" unicode="&#xd5;" horiz-adv-x="611" 
d="M665 911q-7 -21 -19 -41t-28 -35t-36 -24t-44 -9q-17 0 -34 6t-34 13q-17 8 -34 13.5t-34 5.5t-33.5 -14t-21.5 -31h-46q14 46 45 77t81 31q20 0 37.5 -5.5t34.5 -12.5q15 -8 29 -13.5t26 -5.5q45 0 60 45h51zM317 62q33 0 59.5 8.5t48 31t38.5 61t29 97.5l50 244
q12 57 2 88.5t-29 46.5t-40.5 18t-32.5 3t-33.5 -3t-48 -18t-49 -46.5t-35.5 -88.5l-50 -244q-12 -59 -12 -98q0 -38 12 -60.5t35 -31t56 -8.5zM301 -15q-115 0 -157.5 64.5t-11.5 214.5l50 237q22 108 91.5 172t184.5 64q57 0 96.5 -16.5t61 -47.5t26.5 -74.5t-6 -97.5
l-50 -237q-31 -150 -100.5 -214.5t-184.5 -64.5z" />
    <glyph glyph-name="uacute" unicode="&#xfa;" 
d="M519 722l-161 -141h-67l119 141h109zM446 505h82l-83 -400q-5 -26 -9 -52.5t-7 -52.5h-87l12 61h-3q-27 -35 -65 -53t-78 -18q-66 0 -94 32.5t-15 97.5l80 385h82l-72 -350q-10 -46 5.5 -74t59.5 -28q16 0 35 6.5t36 20.5t31 36t21 54z" />
    <glyph glyph-name="eacute" unicode="&#xe9;" 
d="M519 722l-161 -141h-67l119 141h109zM408 288q12 55 11.5 87.5t-10.5 50t-27.5 22.5t-39.5 5q-20 0 -38.5 -6t-35.5 -24t-31.5 -50.5t-25.5 -84.5h197zM198 226q-11 -53 -11 -86t9.5 -51.5t27 -25t41.5 -6.5q42 0 70 29t38 67h90q-18 -84 -74.5 -123.5t-135.5 -39.5
q-40 0 -73.5 8.5t-53.5 35.5t-24.5 77t12.5 134q12 55 27.5 104.5t43 86t70 58t108.5 21.5q54 0 85.5 -15t45.5 -45.5t12 -76.5t-15 -109l-9 -43h-284z" />
    <glyph glyph-name="iacute" unicode="&#xed;" horiz-adv-x="222" 
d="M380 722l-161 -141h-67l119 141h109zM70 0l104 505h82l-104 -505h-82z" />
    <glyph glyph-name="icircumflex" unicode="&#xee;" horiz-adv-x="222" 
d="M251 675l-86 -94h-80l130 141h92l70 -141h-80zM70 0l104 505h82l-104 -505h-82z" />
    <glyph glyph-name="registered" unicode="&#xae;" horiz-adv-x="800" 
d="M411 393h90q32 0 52 20.5t26 49.5q2 12 1 23.5t-6.5 21t-16 15.5t-28.5 6h-90zM359 144h-70l90 433h172q31 0 52 -9.5t33 -24.5t15 -34.5t-1 -39.5q-8 -38 -40 -65t-75 -35v-2q20 -2 33 -7.5t19 -17.5t6.5 -32t-5.5 -53q-1 -7 -3 -22t-3.5 -31.5t-2 -33t1.5 -26.5h-69
q-4 11 -3.5 27t3 34.5t6 39.5t6.5 43q2 17 -3.5 27t-14 15t-19 6t-17.5 1h-70zM542 681q-67 0 -130.5 -25t-116 -68.5t-90 -102t-50.5 -124.5q-14 -67 -1 -125t47.5 -101.5t87.5 -68.5t120 -25t130.5 25t115.5 68.5t89 101.5t51 125q13 66 0.5 124.5t-46.5 102t-87 68.5
t-120 25zM554 737q78 0 140 -29.5t102.5 -80t55.5 -119t-1 -146.5q-17 -79 -60.5 -147.5t-105 -119.5t-136 -80.5t-152.5 -29.5t-140.5 29.5t-103 80.5t-56 119.5t1.5 147.5q16 78 60 146.5t105.5 119t136.5 80t153 29.5z" />
    <glyph glyph-name="Atilde" unicode="&#xc3;" horiz-adv-x="611" 
d="M665 911q-7 -21 -19 -41t-28 -35t-36 -24t-44 -9q-17 0 -34 6t-34 13q-17 8 -34 13.5t-34 5.5t-33.5 -14t-21.5 -31h-46q14 46 45 77t81 31q20 0 37.5 -5.5t34.5 -12.5q15 -8 29 -13.5t26 -5.5q45 0 60 45h51zM432 637h-2l-193 -385h231zM394 722h117l85 -722h-103
l-17 172h-279l-89 -172h-93z" />
    <glyph glyph-name="Aacute" unicode="&#xc1;" horiz-adv-x="611" 
d="M620 939l-161 -141h-67l119 141h109zM432 637h-2l-193 -385h231zM394 722h117l85 -722h-103l-17 172h-279l-89 -172h-93z" />
    <glyph glyph-name="Ccedilla" unicode="&#xc7;" horiz-adv-x="556" 
d="M507 523q8 31 10 59.5t-9 45.5q-5 9 -14.5 14.5t-20.5 9.5t-21.5 5.5t-17.5 1.5q-29 0 -50.5 -7.5t-36.5 -17t-23.5 -18.5t-10.5 -13q-2 -3 -7 -9.5t-11.5 -22t-15.5 -44t-18 -74.5l-40 -193q-14 -66 -12 -105.5t15 -60t35 -26.5t49 -6q10 0 30 4t42 19t42 45t32 83h95
q-11 -56 -30 -94.5t-42.5 -64t-49 -39.5t-49.5 -20.5t-44.5 -8t-33.5 -1.5l-44 -45l2 -2q6 2 14.5 4t16.5 2q34 0 54.5 -19.5t12.5 -56.5q-5 -26 -19.5 -43.5t-33.5 -28.5t-41 -16t-41 -5q-28 0 -52 7t-43 15l26 40q15 -6 29 -10.5t32 -4.5q19 0 40 8.5t26 31.5q5 21 -8 31
t-33 10q-10 0 -20 -3t-19 -5l-13 19l68 73q-32 2 -62.5 13.5t-50.5 41.5t-25.5 85t13.5 144l42 204q16 76 43 126.5t63.5 80.5t82 42.5t98.5 12.5q107 0 139.5 -54.5t4.5 -159.5h-95z" />
    <glyph glyph-name="ntilde" unicode="&#xf1;" 
d="M564 694q-7 -21 -19 -41t-28 -35t-36 -24t-44 -9q-17 0 -34 6t-34 13q-17 8 -34 13.5t-34 5.5t-33.5 -14t-21.5 -31h-46q14 46 45 77t81 31q20 0 37.5 -5.5t33.5 -12.5q16 -8 29.5 -13.5t25.5 -5.5q46 0 61 45h51zM346 0l72 350q4 20 4 38t-7.5 31.5t-23 21t-41.5 7.5
q-34 0 -57 -13.5t-38.5 -35t-24.5 -48t-14 -52.5l-62 -299h-82l83 400q5 26 9 52.5t7 52.5h87l-13 -65h4q33 43 67.5 59t83.5 16q40 0 64 -11.5t34.5 -33.5t10 -52.5t-8.5 -67.5l-72 -350h-82z" />
    <glyph glyph-name="Aring" unicode="&#xc5;" horiz-adv-x="611" 
d="M550 888q5 25 -9 42.5t-38 17.5q-25 0 -46.5 -17.5t-26.5 -42.5q-5 -24 9 -42t39 -18q24 0 45.5 18t26.5 42zM469 787q-42 0 -65.5 29t-14.5 72q4 21 16 39.5t28.5 32t36.5 21.5t41 8t38 -8t28 -22t14.5 -32t-0.5 -39q-5 -21 -16.5 -39.5t-28 -32t-36.5 -21.5t-41 -8z
M432 637h-2l-193 -385h231zM394 722h117l85 -722h-103l-17 172h-279l-89 -172h-93z" />
    <glyph glyph-name="mu" unicode="&#xb5;" 
d="M354 61h-3q-27 -35 -65 -53t-78 -18q-13 0 -29.5 3.5t-21.5 6.5l-40 -191h-82l144 696h82l-72 -350q-10 -46 5.5 -74t59.5 -28q16 0 35 6.5t36 20.5t31 36t21 54l69 335h82l-83 -400q-5 -26 -9 -52.5t-7 -52.5h-87z" />
    <glyph glyph-name="mu" unicode="&#x3bc;" 
d="M354 61h-3q-27 -35 -65 -53t-78 -18q-13 0 -29.5 3.5t-21.5 6.5l-40 -191h-82l144 696h82l-72 -350q-10 -46 5.5 -74t59.5 -28q16 0 35 6.5t36 20.5t31 36t21 54l69 335h82l-83 -400q-5 -26 -9 -52.5t-7 -52.5h-87z" />
    <glyph glyph-name="Ugrave" unicode="&#xd9;" horiz-adv-x="611" 
d="M491 939l59 -141h-67l-101 141h109zM228 722h92l-96 -462q-12 -59 -11.5 -97.5t13 -61t35.5 -31t56 -8.5t60 8.5t49 31t39 61t29 97.5l96 462h92l-96 -458q-31 -150 -100.5 -214.5t-184.5 -64.5t-157.5 64.5t-11.5 214.5z" />
    <glyph glyph-name="Egrave" unicode="&#xc8;" 
d="M435 939l59 -141h-67l-101 141h109zM81 0l150 722h372l-17 -80h-280l-48 -232h260l-17 -80h-260l-52 -250h286l-16 -80h-378z" />
    <glyph glyph-name="otilde" unicode="&#xf5;" 
d="M564 694q-7 -21 -19 -41t-28 -35t-36 -24t-44 -9q-17 0 -34 6t-34 13q-17 8 -34 13.5t-34 5.5t-33.5 -14t-21.5 -31h-46q14 46 45 77t81 31q20 0 37.5 -5.5t33.5 -12.5q16 -8 29.5 -13.5t25.5 -5.5q46 0 61 45h51zM261 57q32 0 55 12t40.5 38t31 68.5t26.5 104.5
q10 52 9.5 84.5t-10.5 51t-28 25.5t-42 7t-45 -7t-39 -25.5t-32.5 -51t-24.5 -84.5q-13 -62 -17 -104.5t2 -68.5t24 -38t50 -12zM247 -10q-40 0 -73.5 8.5t-53.5 35.5t-24.5 77t12.5 134q12 55 27.5 104.5t43 86t70 58t108.5 21.5t99.5 -21.5t45.5 -58t7 -86t-17 -104.5
q-17 -84 -42.5 -134t-57 -77t-68.5 -35.5t-77 -8.5z" />
    <glyph glyph-name="Ntilde" unicode="&#xd1;" horiz-adv-x="667" 
d="M693 911q-7 -21 -19 -41t-28 -35t-36 -24t-44 -9q-17 0 -34 6t-34 13q-17 8 -34 13.5t-34 5.5t-33.5 -14t-21.5 -31h-46q14 46 45 77t81 31q20 0 37.5 -5.5t34.5 -12.5q15 -8 29 -13.5t26 -5.5q45 0 60 45h51zM731 722l-150 -722h-126l-155 626h-2l-130 -626h-82l150 722
h130l152 -618h2l129 618h82z" />
    <glyph glyph-name="Uacute" unicode="&#xda;" horiz-adv-x="611" 
d="M620 939l-161 -141h-67l119 141h109zM228 722h92l-96 -462q-12 -59 -11.5 -97.5t13 -61t35.5 -31t56 -8.5t60 8.5t49 31t39 61t29 97.5l96 462h92l-96 -458q-31 -150 -100.5 -214.5t-184.5 -64.5t-157.5 64.5t-11.5 214.5z" />
    <glyph glyph-name="Acircumflex" unicode="&#xc2;" horiz-adv-x="611" 
d="M491 892l-86 -94h-80l130 141h92l70 -141h-80zM432 637h-2l-193 -385h231zM394 722h117l85 -722h-103l-17 172h-279l-89 -172h-93z" />
    <glyph glyph-name="ocircumflex" unicode="&#xf4;" 
d="M390 675l-86 -94h-80l130 141h92l70 -141h-80zM261 57q32 0 55 12t40.5 38t31 68.5t26.5 104.5q10 52 9.5 84.5t-10.5 51t-28 25.5t-42 7t-45 -7t-39 -25.5t-32.5 -51t-24.5 -84.5q-13 -62 -17 -104.5t2 -68.5t24 -38t50 -12zM247 -10q-40 0 -73.5 8.5t-53.5 35.5
t-24.5 77t12.5 134q12 55 27.5 104.5t43 86t70 58t108.5 21.5t99.5 -21.5t45.5 -58t7 -86t-17 -104.5q-17 -84 -42.5 -134t-57 -77t-68.5 -35.5t-77 -8.5z" />
    <glyph glyph-name="ydieresis" unicode="&#xff;" horiz-adv-x="444" 
d="M303 590h-94l22 104h94zM479 590h-94l22 104h94zM243 94h2l206 411h89l-373 -696h-85l97 191l-67 505h95z" />
    <glyph glyph-name="Eacute" unicode="&#xc9;" 
d="M564 939l-161 -141h-67l119 141h109zM81 0l150 722h372l-17 -80h-280l-48 -232h260l-17 -80h-260l-52 -250h286l-16 -80h-378z" />
    <glyph glyph-name="Ograve" unicode="&#xd2;" horiz-adv-x="611" 
d="M491 939l59 -141h-67l-101 141h109zM317 62q33 0 59.5 8.5t48 31t38.5 61t29 97.5l50 244q12 57 2 88.5t-29 46.5t-40.5 18t-32.5 3t-33.5 -3t-48 -18t-49 -46.5t-35.5 -88.5l-50 -244q-12 -59 -12 -98q0 -38 12 -60.5t35 -31t56 -8.5zM301 -15q-115 0 -157.5 64.5
t-11.5 214.5l50 237q22 108 91.5 172t184.5 64q57 0 96.5 -16.5t61 -47.5t26.5 -74.5t-6 -97.5l-50 -237q-31 -150 -100.5 -214.5t-184.5 -64.5z" />
    <glyph glyph-name="acircumflex" unicode="&#xe2;" 
d="M390 675l-86 -94h-80l130 141h92l70 -141h-80zM382 251q-30 0 -62.5 -1t-61 -10t-50.5 -29.5t-30 -60.5q-8 -37 5 -65t54 -28q19 0 40 7.5t41.5 28.5t37 59t26.5 99zM347 73h-2q-28 -44 -62.5 -63.5t-82.5 -19.5q-40 0 -64 12.5t-35 34.5t-11.5 52.5t7.5 66.5
q12 57 44 89.5t74 47.5t89.5 18t90.5 2q6 25 10.5 50t0.5 45t-19 32.5t-48 12.5q-42 0 -67.5 -25t-30.5 -65h-89q20 85 71 118.5t132 33.5q49 0 78 -12t43.5 -32.5t16 -48t-5.5 -59.5l-51 -243q-6 -30 -9 -60.5t-5 -59.5h-90z" />
    <glyph glyph-name="divide" unicode="&#xf7;" 
d="M380 402h-94l22 104h94zM297 0h-94l21 104h94zM102 284h414l-13 -62h-414z" />
    <glyph glyph-name="ccedilla" unicode="&#xe7;" 
d="M407 343q7 31 5 51.5t-10 32.5t-19.5 16.5t-23.5 4.5q-24 0 -45 -7t-39 -25.5t-32.5 -51t-24.5 -84.5q-13 -62 -17 -104.5t2 -68.5t24 -38t50 -12q7 0 21 4.5t28.5 17t27.5 34t19 55.5h86q-9 -50 -30.5 -83t-47.5 -53t-53.5 -29.5t-49.5 -11.5l-50 -51l2 -2q6 2 14.5 4
t16.5 2q34 0 54.5 -19.5t12.5 -56.5q-5 -26 -19.5 -43.5t-33.5 -28.5t-41 -16t-41 -5q-28 0 -52 7t-43 15l26 40q15 -6 29 -10.5t32 -4.5q19 0 40 8.5t26 31.5q5 21 -8 31t-33 10q-10 0 -20 -3t-19 -5l-13 19l73 77q-34 3 -60.5 15t-42 40.5t-17.5 76t13 122.5
q12 55 27.5 104.5t43 86t70 58t108.5 21.5q76 0 108 -43.5t11 -128.5h-85z" />
    <glyph glyph-name="ugrave" unicode="&#xf9;" 
d="M390 722l59 -141h-67l-101 141h109zM446 505h82l-83 -400q-5 -26 -9 -52.5t-7 -52.5h-87l12 61h-3q-27 -35 -65 -53t-78 -18q-66 0 -94 32.5t-15 97.5l80 385h82l-72 -350q-10 -46 5.5 -74t59.5 -28q16 0 35 6.5t36 20.5t31 36t21 54z" />
    <glyph glyph-name="Agrave" unicode="&#xc0;" horiz-adv-x="611" 
d="M491 939l59 -141h-67l-101 141h109zM432 637h-2l-193 -385h231zM394 722h117l85 -722h-103l-17 172h-279l-89 -172h-93z" />
    <glyph glyph-name="Ucircumflex" unicode="&#xdb;" horiz-adv-x="611" 
d="M491 892l-86 -94h-80l130 141h92l70 -141h-80zM228 722h92l-96 -462q-12 -59 -11.5 -97.5t13 -61t35.5 -31t56 -8.5t60 8.5t49 31t39 61t29 97.5l96 462h92l-96 -458q-31 -150 -100.5 -214.5t-184.5 -64.5t-157.5 64.5t-11.5 214.5z" />
    <glyph glyph-name="Ydieresis" unicode="&#x178;" 
d="M376 807h-94l22 104h94zM552 807h-94l22 104h94zM548 722h93l-290 -447l-57 -275h-92l57 275l-101 447h103l68 -349z" />
    <glyph glyph-name="Adieresis" unicode="&#xc4;" horiz-adv-x="611" 
d="M608 807h-94l22 104h94zM432 807h-94l22 104h94zM432 637h-2l-193 -385h231zM394 722h117l85 -722h-103l-17 172h-279l-89 -172h-93z" />
    <glyph glyph-name="Icircumflex" unicode="&#xce;" horiz-adv-x="278" 
d="M324 892l-86 -94h-80l130 141h92l70 -141h-80zM185 0h-92l150 722h92z" />
    <glyph glyph-name="idieresis" unicode="&#xef;" horiz-adv-x="222" 
d="M192 590h-94l22 104h94zM368 590h-94l22 104h94zM70 0l104 505h82l-104 -505h-82z" />
    <glyph glyph-name="Oacute" unicode="&#xd3;" horiz-adv-x="611" 
d="M620 939l-161 -141h-67l119 141h109zM317 62q33 0 59.5 8.5t48 31t38.5 61t29 97.5l50 244q12 57 2 88.5t-29 46.5t-40.5 18t-32.5 3t-33.5 -3t-48 -18t-49 -46.5t-35.5 -88.5l-50 -244q-12 -59 -12 -98q0 -38 12 -60.5t35 -31t56 -8.5zM301 -15q-115 0 -157.5 64.5
t-11.5 214.5l50 237q22 108 91.5 172t184.5 64q57 0 96.5 -16.5t61 -47.5t26.5 -74.5t-6 -97.5l-50 -237q-31 -150 -100.5 -214.5t-184.5 -64.5z" />
    <glyph glyph-name="aring" unicode="&#xe5;" 
d="M449 671q5 25 -9.5 42.5t-38.5 17.5q-25 0 -46 -17.5t-26 -42.5q-5 -24 9 -42t39 -18q24 0 45.5 18t26.5 42zM382 251q-30 0 -62.5 -1t-61 -10t-50.5 -29.5t-30 -60.5q-8 -37 5 -65t54 -28q19 0 40 7.5t41.5 28.5t37 59t26.5 99zM368 570q-42 0 -65.5 29t-14.5 72
q4 21 16 39.5t28.5 32t36.5 21.5t41 8t38 -8t27.5 -22t14.5 -32t0 -39q-5 -21 -16.5 -39.5t-28 -32t-36.5 -21.5t-41 -8zM347 73h-2q-28 -44 -62.5 -63.5t-82.5 -19.5q-40 0 -64 12.5t-35 34.5t-11.5 52.5t7.5 66.5q12 57 44 89.5t74 47.5t89.5 18t90.5 2q6 25 10.5 50
t0.5 45t-19 32.5t-48 12.5q-42 0 -67.5 -25t-30.5 -65h-89q20 85 71 118.5t132 33.5q49 0 78 -12t43.5 -32.5t16 -48t-5.5 -59.5l-51 -243q-6 -30 -9 -60.5t-5 -59.5h-90z" />
    <glyph glyph-name="trademark" unicode="&#x2122;" horiz-adv-x="825" 
d="M455 722l-12 -56h-119l-78 -377h-70l78 377h-119l12 56h308zM850 289h-70l70 341h-2l-190 -341h-57l-44 341h-2l-70 -341h-70l90 433h111l41 -322h2l172 322h109z" />
    <glyph glyph-name="ograve" unicode="&#xf2;" 
d="M390 722l59 -141h-67l-101 141h109zM261 57q32 0 55 12t40.5 38t31 68.5t26.5 104.5q10 52 9.5 84.5t-10.5 51t-28 25.5t-42 7t-45 -7t-39 -25.5t-32.5 -51t-24.5 -84.5q-13 -62 -17 -104.5t2 -68.5t24 -38t50 -12zM247 -10q-40 0 -73.5 8.5t-53.5 35.5t-24.5 77
t12.5 134q12 55 27.5 104.5t43 86t70 58t108.5 21.5t99.5 -21.5t45.5 -58t7 -86t-17 -104.5q-17 -84 -42.5 -134t-57 -77t-68.5 -35.5t-77 -8.5z" />
    <glyph glyph-name="udieresis" unicode="&#xfc;" 
d="M331 590h-94l22 104h94zM507 590h-94l22 104h94zM446 505h82l-83 -400q-5 -26 -9 -52.5t-7 -52.5h-87l12 61h-3q-27 -35 -65 -53t-78 -18q-66 0 -94 32.5t-15 97.5l80 385h82l-72 -350q-10 -46 5.5 -74t59.5 -28q16 0 35 6.5t36 20.5t31 36t21 54z" />
    <glyph glyph-name="edieresis" unicode="&#xeb;" 
d="M507 590h-94l22 104h94zM331 590h-94l22 104h94zM408 288q12 55 11.5 87.5t-10.5 50t-27.5 22.5t-39.5 5q-20 0 -38.5 -6t-35.5 -24t-31.5 -50.5t-25.5 -84.5h197zM198 226q-11 -53 -11 -86t9.5 -51.5t27 -25t41.5 -6.5q42 0 70 29t38 67h90q-18 -84 -74.5 -123.5
t-135.5 -39.5q-40 0 -73.5 8.5t-53.5 35.5t-24.5 77t12.5 134q12 55 27.5 104.5t43 86t70 58t108.5 21.5q54 0 85.5 -15t45.5 -45.5t12 -76.5t-15 -109l-9 -43h-284z" />
    <glyph glyph-name="plusminus" unicode="&#xb1;" 
d="M55 62h414l-12 -62h-414zM323 505h62l-33 -162h176l-13 -62h-176l-34 -162h-62l34 162h-176l13 62h176z" />
    <glyph glyph-name="aacute" unicode="&#xe1;" 
d="M519 722l-161 -141h-67l119 141h109zM382 251q-30 0 -62.5 -1t-61 -10t-50.5 -29.5t-30 -60.5q-8 -37 5 -65t54 -28q19 0 40 7.5t41.5 28.5t37 59t26.5 99zM347 73h-2q-28 -44 -62.5 -63.5t-82.5 -19.5q-40 0 -64 12.5t-35 34.5t-11.5 52.5t7.5 66.5q12 57 44 89.5
t74 47.5t89.5 18t90.5 2q6 25 10.5 50t0.5 45t-19 32.5t-48 12.5q-42 0 -67.5 -25t-30.5 -65h-89q20 85 71 118.5t132 33.5q49 0 78 -12t43.5 -32.5t16 -48t-5.5 -59.5l-51 -243q-6 -30 -9 -60.5t-5 -59.5h-90z" />
    <glyph glyph-name="Idieresis" unicode="&#xcf;" horiz-adv-x="278" 
d="M265 807h-94l22 104h94zM441 807h-94l22 104h94zM185 0h-92l150 722h92z" />
    <glyph glyph-name="igrave" unicode="&#xec;" horiz-adv-x="222" 
d="M251 722l59 -141h-67l-101 141h109zM70 0l104 505h82l-104 -505h-82z" />
    <glyph glyph-name="Iacute" unicode="&#xcd;" horiz-adv-x="278" 
d="M453 939l-161 -141h-67l119 141h109zM185 0h-92l150 722h92z" />
    <glyph glyph-name="copyright" unicode="&#xa9;" horiz-adv-x="800" 
d="M381 310q-7 -32 -5 -52t10.5 -31t22.5 -15.5t32 -4.5q44 0 64.5 23t28.5 58h70q-11 -60 -53 -98.5t-113 -38.5q-18 0 -45 1.5t-49.5 17t-33 51t3.5 102.5l21 101q7 37 20.5 68.5t36 54t55.5 35.5t79 13q73 0 98 -31.5t11 -96.5h-70q6 28 1.5 43t-13.5 21.5t-21 7t-21 0.5
q-38 0 -64.5 -18.5t-36.5 -68.5zM542 681q-67 0 -130.5 -25t-116 -68.5t-90 -102t-50.5 -124.5q-14 -67 -1 -125t47.5 -101.5t87.5 -68.5t120 -25t130.5 25t115.5 68.5t89 101.5t51 125q13 66 0.5 124.5t-46.5 102t-87 68.5t-120 25zM554 737q78 0 140 -29.5t102.5 -80
t55.5 -119t-1 -146.5q-17 -79 -60.5 -147.5t-105 -119.5t-136 -80.5t-152.5 -29.5t-140.5 29.5t-103 80.5t-56 119.5t1.5 147.5q16 78 60 146.5t105.5 119t136.5 80t153 29.5z" />
    <glyph glyph-name="adieresis" unicode="&#xe4;" 
d="M507 590h-94l22 104h94zM331 590h-94l22 104h94zM382 251q-30 0 -62.5 -1t-61 -10t-50.5 -29.5t-30 -60.5q-8 -37 5 -65t54 -28q19 0 40 7.5t41.5 28.5t37 59t26.5 99zM347 73h-2q-28 -44 -62.5 -63.5t-82.5 -19.5q-40 0 -64 12.5t-35 34.5t-11.5 52.5t7.5 66.5
q12 57 44 89.5t74 47.5t89.5 18t90.5 2q6 25 10.5 50t0.5 45t-19 32.5t-48 12.5q-42 0 -67.5 -25t-30.5 -65h-89q20 85 71 118.5t132 33.5q49 0 78 -12t43.5 -32.5t16 -48t-5.5 -59.5l-51 -243q-6 -30 -9 -60.5t-5 -59.5h-90z" />
    <glyph glyph-name="agrave" unicode="&#xe0;" 
d="M390 722l59 -141h-67l-101 141h109zM382 251q-30 0 -62.5 -1t-61 -10t-50.5 -29.5t-30 -60.5q-8 -37 5 -65t54 -28q19 0 40 7.5t41.5 28.5t37 59t26.5 99zM347 73h-2q-28 -44 -62.5 -63.5t-82.5 -19.5q-40 0 -64 12.5t-35 34.5t-11.5 52.5t7.5 66.5q12 57 44 89.5
t74 47.5t89.5 18t90.5 2q6 25 10.5 50t0.5 45t-19 32.5t-48 12.5q-42 0 -67.5 -25t-30.5 -65h-89q20 85 71 118.5t132 33.5q49 0 78 -12t43.5 -32.5t16 -48t-5.5 -59.5l-51 -243q-6 -30 -9 -60.5t-5 -59.5h-90z" />
    <glyph glyph-name="Igrave" unicode="&#xcc;" horiz-adv-x="278" 
d="M324 939l59 -141h-67l-101 141h109zM185 0h-92l150 722h92z" />
    <glyph glyph-name="Ocircumflex" unicode="&#xd4;" horiz-adv-x="611" 
d="M491 892l-86 -94h-80l130 141h92l70 -141h-80zM317 62q33 0 59.5 8.5t48 31t38.5 61t29 97.5l50 244q12 57 2 88.5t-29 46.5t-40.5 18t-32.5 3t-33.5 -3t-48 -18t-49 -46.5t-35.5 -88.5l-50 -244q-12 -59 -12 -98q0 -38 12 -60.5t35 -31t56 -8.5zM301 -15
q-115 0 -157.5 64.5t-11.5 214.5l50 237q22 108 91.5 172t184.5 64q57 0 96.5 -16.5t61 -47.5t26.5 -74.5t-6 -97.5l-50 -237q-31 -150 -100.5 -214.5t-184.5 -64.5z" />
    <glyph glyph-name="egrave" unicode="&#xe8;" 
d="M390 722l59 -141h-67l-101 141h109zM408 288q12 55 11.5 87.5t-10.5 50t-27.5 22.5t-39.5 5q-20 0 -38.5 -6t-35.5 -24t-31.5 -50.5t-25.5 -84.5h197zM198 226q-11 -53 -11 -86t9.5 -51.5t27 -25t41.5 -6.5q42 0 70 29t38 67h90q-18 -84 -74.5 -123.5t-135.5 -39.5
q-40 0 -73.5 8.5t-53.5 35.5t-24.5 77t12.5 134q12 55 27.5 104.5t43 86t70 58t108.5 21.5q54 0 85.5 -15t45.5 -45.5t12 -76.5t-15 -109l-9 -43h-284z" />
    <glyph glyph-name="atilde" unicode="&#xe3;" 
d="M564 694q-7 -21 -19 -41t-28 -35t-36 -24t-44 -9q-17 0 -34 6t-34 13q-17 8 -34 13.5t-34 5.5t-33.5 -14t-21.5 -31h-46q14 46 45 77t81 31q20 0 37.5 -5.5t33.5 -12.5q16 -8 29.5 -13.5t25.5 -5.5q46 0 61 45h51zM382 251q-30 0 -62.5 -1t-61 -10t-50.5 -29.5t-30 -60.5
q-8 -37 5 -65t54 -28q19 0 40 7.5t41.5 28.5t37 59t26.5 99zM347 73h-2q-28 -44 -62.5 -63.5t-82.5 -19.5q-40 0 -64 12.5t-35 34.5t-11.5 52.5t7.5 66.5q12 57 44 89.5t74 47.5t89.5 18t90.5 2q6 25 10.5 50t0.5 45t-19 32.5t-48 12.5q-42 0 -67.5 -25t-30.5 -65h-89
q20 85 71 118.5t132 33.5q49 0 78 -12t43.5 -32.5t16 -48t-5.5 -59.5l-51 -243q-6 -30 -9 -60.5t-5 -59.5h-90z" />
    <glyph glyph-name="Udieresis" unicode="&#xdc;" horiz-adv-x="611" 
d="M432 807h-94l22 104h94zM608 807h-94l22 104h94zM228 722h92l-96 -462q-12 -59 -11.5 -97.5t13 -61t35.5 -31t56 -8.5t60 8.5t49 31t39 61t29 97.5l96 462h92l-96 -458q-31 -150 -100.5 -214.5t-184.5 -64.5t-157.5 64.5t-11.5 214.5z" />
    <glyph glyph-name="ecircumflex" unicode="&#xea;" 
d="M390 675l-86 -94h-80l130 141h92l70 -141h-80zM408 288q12 55 11.5 87.5t-10.5 50t-27.5 22.5t-39.5 5q-20 0 -38.5 -6t-35.5 -24t-31.5 -50.5t-25.5 -84.5h197zM198 226q-11 -53 -11 -86t9.5 -51.5t27 -25t41.5 -6.5q42 0 70 29t38 67h90q-18 -84 -74.5 -123.5
t-135.5 -39.5q-40 0 -73.5 8.5t-53.5 35.5t-24.5 77t12.5 134q12 55 27.5 104.5t43 86t70 58t108.5 21.5q54 0 85.5 -15t45.5 -45.5t12 -76.5t-15 -109l-9 -43h-284z" />
    <glyph glyph-name="space" unicode=" " horiz-adv-x="222" 
 />
    <glyph glyph-name="space" unicode="&#xa0;" horiz-adv-x="222" 
 />
    <glyph glyph-name="Lslash" unicode="&#x141;" horiz-adv-x="444" 
d="M157 367l-80 -41l-14 39l105 54l63 303h92l-52 -250l84 43l13 -39l-108 -56l-71 -340h265l-16 -80h-357z" />
    <glyph glyph-name="lslash" unicode="&#x142;" horiz-adv-x="222" 
d="M249 469l89 46l12 -35l-111 -57l-87 -423h-82l78 376l-89 -46l-13 35l111 57l63 300h82z" />
    <glyph glyph-name="onesuperior" unicode="&#xb9;" horiz-adv-x="266" 
d="M246 282h-70l73 349l-77 -42l12 59q6 2 17.5 8t24 13.5t25 15.5t20.5 13h62z" />
    <glyph glyph-name="minus" unicode="&#x2212;" 
d="M102 284h414l-13 -62h-414z" />
    <glyph glyph-name="onequarter" unicode="&#xbc;" horiz-adv-x="666" 
d="M540 154l41 200h-2l-132 -200h93zM246 282h-70l73 349l-77 -42l12 59q6 2 17.5 8t24 13.5t25 15.5t20.5 13h62zM59 -27l593 749h62l-592 -749h-63zM371 98l10 51l184 267h99l-54 -262h53l-12 -56h-53l-20 -98h-70l20 98h-157z" />
    <glyph glyph-name="onehalf" unicode="&#xbd;" horiz-adv-x="666" 
d="M216 282h-70l73 349l-77 -42l12 59q6 2 17.5 8t24 13.5t25 15.5t20.5 13h62zM29 -27l593 749h62l-592 -749h-63zM385 0l11 53q62 62 103 101.5t66.5 67t38 49t17.5 46.5q5 21 -5.5 35.5t-39.5 14.5q-26 0 -38.5 -20.5t-16.5 -42.5h-71q3 24 13 45.5t27 38t40.5 26
t52.5 9.5q69 0 94 -26t14 -83q-8 -35 -23 -61t-40 -53t-62 -61.5t-88 -85.5h161l-11 -53h-243z" />
    <glyph glyph-name="Eth" unicode="&#xd0;" horiz-adv-x="611" 
d="M191 80h87q48 0 83.5 10t61.5 35t44 66.5t31 104.5l30 146q23 109 -2 154.5t-97 45.5h-121l-46 -220h151l-11 -56h-151zM159 366h-70l11 56h70l63 300h222q69 0 112.5 -26t58.5 -84q6 -23 5 -58t-5 -70t-9 -63t-7 -37q-24 -116 -49 -185.5t-55 -105.5q-39 -47 -100.5 -70
t-156.5 -23h-166z" />
    <glyph glyph-name="brokenbar" unicode="&#xa6;" horiz-adv-x="250" 
d="M296 675l-73 -350h-62l73 350h62zM192 175l-73 -350h-62l73 350h62z" />
    <glyph glyph-name="thorn" unicode="&#xfe;" 
d="M217 273q-6 -29 -13.5 -66.5t-7 -70.5t15 -56t52.5 -23q39 0 63.5 18.5t40 46t24 60t14.5 61.5q10 51 15 89t0 64t-22 39t-50 13q-34 0 -57 -18t-38 -44.5t-23.5 -57t-13.5 -55.5zM229 722h82l-58 -277h2q29 35 59.5 52.5t67.5 17.5q61 0 89.5 -24.5t36.5 -63.5t1 -87.5
t-17 -95.5q-17 -83 -41.5 -133t-53 -77t-60 -35.5t-61.5 -8.5q-39 0 -63 15.5t-39 45.5h-3l-50 -242h-82z" />
    <glyph glyph-name="yacute" unicode="&#xfd;" horiz-adv-x="444" 
d="M491 722l-161 -141h-67l119 141h109zM243 94h2l206 411h89l-373 -696h-85l97 191l-67 505h95z" />
    <glyph glyph-name="eth" unicode="&#xf0;" 
d="M261 56q32 0 55 11.5t40 37.5t30.5 67.5t25.5 101.5q11 51 10 83t-11 50.5t-28 25t-42 6.5t-44.5 -6.5t-38.5 -25t-32.5 -50.5t-25.5 -83q-12 -60 -16 -101.5t2.5 -67.5t24.5 -37.5t50 -11.5zM233 600l93 49q-19 20 -37 33.5t-35 23.5l65 47q45 -25 84 -64l104 55l23 -33
l-102 -53q29 -37 49 -76.5t28.5 -88.5t5.5 -110.5t-20 -142.5q-17 -82 -42 -131.5t-56.5 -75.5t-68.5 -34.5t-77 -8.5t-73.5 8.5t-53.5 34.5t-25 75.5t12 131.5q12 54 27 102.5t41 84.5t66 57t101 21q32 0 49.5 -9t32.5 -28l2 2q-5 33 -19.5 68t-49.5 83l-99 -51z" />
    <glyph glyph-name="Scaron" unicode="&#x160;" horiz-adv-x="556" 
d="M619 939l-130 -141h-92l-70 141h80l46 -94l86 94h80zM196 215l-4 -21q-8 -37 -2.5 -61.5t19.5 -39.5t34.5 -21.5t42.5 -6.5q55 0 97 26t56 91q6 30 -3 52.5t-28 40.5t-45 33.5t-53 31.5t-52 34t-43 41.5t-25.5 54t0.5 71.5q10 48 34 84.5t57.5 61.5t75 37.5t86.5 12.5
q99 0 141 -50.5t15 -160.5h-96q6 30 6 54t-9 41t-28.5 26.5t-52.5 9.5q-21 0 -42 -5.5t-39 -18t-32 -33t-20 -49.5q-8 -40 10.5 -66.5t50 -48t69 -42t68 -47.5t46.5 -65.5t4 -95.5t-38 -95.5t-62 -62t-78.5 -33.5t-87.5 -10q-53 -1 -87 11.5t-53.5 32t-27 45t-8 51t4 49.5
t8.5 41h91z" />
    <glyph glyph-name="multiply" unicode="&#xd7;" 
d="M129 416l53 44l129 -163l197 163l35 -44l-197 -163l129 -163l-53 -44l-129 163l-197 -163l-35 44l197 163z" />
    <glyph glyph-name="twosuperior" unicode="&#xb2;" horiz-adv-x="266" 
d="M71 282l11 53q62 62 103 101.5t66.5 67t38.5 49t18 46.5q5 21 -6 35.5t-40 14.5q-26 0 -38.5 -20.5t-16.5 -42.5h-71q3 24 13.5 45.5t27.5 38t40.5 26t52.5 9.5q69 0 94 -26t13 -83q-7 -35 -22 -61t-40.5 -53t-62.5 -61.5t-88 -85.5h161l-11 -53h-243z" />
    <glyph glyph-name="zcaron" unicode="&#x17e;" horiz-adv-x="389" 
d="M491 722l-130 -141h-92l-70 141h80l46 -94l86 94h80zM436 430l-299 -363h230l-13 -67h-319l16 77l294 359l1 2h-209l13 67h301z" />
    <glyph glyph-name="Yacute" unicode="&#xdd;" 
d="M564 939l-161 -141h-67l119 141h109zM548 722h93l-290 -447l-57 -275h-92l57 275l-101 447h103l68 -349z" />
    <glyph glyph-name="threesuperior" unicode="&#xb3;" horiz-adv-x="266" 
d="M203 524q41 -3 67.5 15t34.5 54q5 25 -3 43.5t-41 18.5q-34 0 -48 -19t-19 -45h-63q8 54 42.5 84t97.5 30q58 0 87 -26.5t18 -81.5q-6 -30 -21 -48t-32.5 -28t-34.5 -14.5t-27 -6.5v-2q102 -12 82 -105q-13 -61 -58.5 -90.5t-110.5 -29.5q-47 0 -68 16t-26.5 37t-2 41.5
t5.5 29.5h64q-3 -14 -3 -27q0 -12 4 -21t14.5 -14.5t28.5 -5.5q40 0 58 18t24 47q10 47 -8.5 64.5t-71.5 17.5z" />
    <glyph glyph-name="Zcaron" unicode="&#x17d;" 
d="M591 939l-130 -141h-92l-70 141h80l46 -94l86 94h80zM597 630l-472 -550h366l-16 -80h-451l21 104l462 536v2h-338l17 80h431z" />
    <glyph glyph-name="threequarters" unicode="&#xbe;" horiz-adv-x="666" 
d="M555 154l41 200h-2l-132 -200h93zM94 -27l593 749h62l-592 -749h-63zM208 524q41 -3 67.5 15t34.5 54q5 25 -3 43.5t-41 18.5q-34 0 -48 -19t-19 -45h-63q8 54 42.5 84t97.5 30q58 0 87 -26.5t18 -81.5q-6 -30 -21 -48t-32.5 -28t-34.5 -14.5t-27 -6.5v-2
q102 -12 82 -105q-13 -61 -58.5 -90.5t-110.5 -29.5q-47 0 -68 16t-26.5 37t-2 41.5t5.5 29.5h64q-3 -14 -3 -27q0 -12 4 -21t14.5 -14.5t28.5 -5.5q40 0 58 18t24 47q10 47 -8.5 64.5t-71.5 17.5zM386 98l10 51l184 267h99l-54 -262h53l-12 -56h-53l-20 -98h-70l20 98h-157
z" />
    <glyph glyph-name="Euro" horiz-adv-x="444" 
d="M129 314l14 66h-57l24 67h48l11 49q22 106 77 160t149 54q82 0 119 -44t18 -137h-89q10 46 -5 73t-60 27q-48 0 -75 -32.5t-39 -90.5l-13 -59h160l-24 -67h-150l-14 -66h138l-25 -67h-126l-12 -59q-14 -63 1 -95t66 -32q45 0 69.5 23.5t35.5 77.5h87q-19 -90 -71 -135
t-142 -45q-94 0 -127.5 52.5t-13.5 152.5l13 60h-58l25 67h46z" />
    <glyph glyph-name="Euro" unicode="&#x20ac;" horiz-adv-x="444" 
d="M129 314l14 66h-57l24 67h48l11 49q22 106 77 160t149 54q82 0 119 -44t18 -137h-89q10 46 -5 73t-60 27q-48 0 -75 -32.5t-39 -90.5l-13 -59h160l-24 -67h-150l-14 -66h138l-25 -67h-126l-12 -59q-14 -63 1 -95t66 -32q45 0 69.5 23.5t35.5 77.5h87q-19 -90 -71 -135
t-142 -45q-94 0 -127.5 52.5t-13.5 152.5l13 60h-58l25 67h46z" />
    <glyph glyph-name="scaron" unicode="&#x161;" horiz-adv-x="444" 
d="M518 722l-130 -141h-92l-70 141h80l46 -94l86 94h80zM426 144q-9 -42 -28.5 -71t-47 -47.5t-61.5 -27t-71 -8.5q-82 0 -121 38.5t-18 125.5h93q-3 -11 -5 -27.5t2.5 -32t19.5 -26.5t46 -11q37 0 66 19t37 58q5 22 -10.5 38.5t-40.5 31t-54.5 29t-53.5 34t-37 46t-5 64.5
q4 20 16.5 44t36 45t60.5 35t90 14q34 0 62.5 -8.5t47 -25.5t24.5 -44.5t-4 -64.5h-91q18 81 -62 81q-33 0 -59 -17.5t-33 -50.5q-5 -22 10.5 -38t40.5 -30t54.5 -28t53.5 -33.5t37 -46.5t5 -65z" />
    <glyph glyph-name="Thorn" unicode="&#xde;" horiz-adv-x="556" 
d="M242 276h101q14 0 36.5 3.5t45.5 16t42.5 37t28.5 66.5q9 41 1 65t-22.5 36.5t-31 16t-23.5 3.5h-127zM243 722h92l-26 -122h122q36 0 70.5 -8.5t58.5 -31t33 -62.5t-4 -104q-13 -62 -42 -100.5t-64.5 -60t-72 -29.5t-64.5 -8h-121l-40 -196h-92z" />
    <glyph glyph-name="nonbreakingspace" horiz-adv-x="222" 
 />
    </font>
</defs>
</svg>
